<svg xmlns="http://www.w3.org/2000/svg" viewBox="0 0 25 25" width="25" height="25">
  <path fill="none" d="M.828.828h23.346v23.346H.828z"/>
  <path fill="#293138" d="m21.291 5.594-7.369-4.375a2.78 2.78 0 0 0-2.844.002L3.707 5.596a2.94 2.94 0 0 0-1.422 2.531v8.75c0 1.045.541 2.01 1.422 2.531l7.369 4.375c.439.262.93.391 1.422.391.49 0 .982-.131 1.422-.391l7.371-4.375a2.94 2.94 0 0 0 1.422-2.531V8.125c0-1.043-.541-2.01-1.422-2.531m-5.707 13.662.012.629a.24.24 0 0 1-.107.193l-.373.215c-.059.029-.109-.006-.109-.082l-.006-.619c-.318.133-.643.164-.848.082-.039-.016-.057-.072-.041-.139l.135-.568a.24.24 0 0 1 .066-.117.1.1 0 0 1 .035-.025.07.07 0 0 1 .061-.006c.223.074.506.039.779-.098.348-.176.58-.531.576-.883-.004-.32-.176-.451-.596-.455-.535.002-1.035-.104-1.043-.893-.006-.648.33-1.324.865-1.75l-.006-.635c0-.078.047-.164.107-.195l.361-.23c.059-.029.109.008.109.084l.006.635c.266-.105.496-.135.705-.086.045.012.066.074.047.146l-.141.563a.25.25 0 0 1-.064.113.2.2 0 0 1-.037.027.1.1 0 0 1-.055.01c-.096-.021-.322-.07-.68.109-.375.189-.506.516-.504.758.004.289.15.377.662.385.682.012.975.309.982.994.01.672-.35 1.396-.9 1.838M20.727 7.44l-6.973 4.307c-.869.508-1.51 1.078-1.512 2.127v8.592c0 .627.254 1.033.643 1.152a2.4 2.4 0 0 1-.387.037c-.408 0-.811-.111-1.164-.32L3.965 18.96a2.42 2.42 0 0 1-1.168-2.084V8.125c0-.857.447-1.656 1.168-2.084l7.371-4.375c.354-.209.756-.32 1.164-.32s.811.111 1.164.32l7.371 4.375a2.41 2.41 0 0 1 1.133 1.686c-.248-.521-.799-.662-1.441-.287"/>
  <path fill="#4FA847" d="m19.359 17.721-1.836 1.098c-.049.029-.084.061-.084.119v.48c0 .059.039.084.088.055l1.863-1.133c.049-.029.057-.082.057-.141v-.424c0-.059-.039-.082-.088-.055"/>
</svg>
