<svg fill="#7952B3" viewBox="0 0 25 25" xmlns="http://www.w3.org/2000/svg" width="25" height="25">
  <path d="M12.26 11.708h-1.889V8.544h2.242c1.219 0 1.91.544 1.91 1.527 0 1.05-.805 1.638-2.265 1.638zm.338 1.256h-2.226v3.488h2.324c1.52 0 2.325-.609 2.325-1.755s-.828-1.732-2.423-1.732M25 11.865v1.269c-1.175.113-1.893.983-2.319 2.362-.424 1.374-.482 3.059-.438 4.36.047 1.354-1.008 2.604-2.434 2.604H5.193c-1.427 0-2.482-1.25-2.434-2.604.045-1.301-.014-2.986-.438-4.36-.427-1.379-1.146-2.25-2.321-2.362v-1.269c1.175-.113 1.895-.983 2.32-2.362.425-1.374.483-3.059.438-4.36-.047-1.354 1.008-2.604 2.435-2.604H19.81c1.427 0 2.481 1.25 2.434 2.604-.045 1.301.014 2.986.438 4.36.426 1.379 1.144 2.25 2.319 2.362m-8.257 2.934c0-1.41-.993-2.43-2.467-2.592v-.059c1.083-.176 1.933-1.182 1.933-2.305 0-1.601-1.264-2.644-3.19-2.644H8.687v10.596h4.355c2.31 0 3.701-1.131 3.701-2.996"/>
</svg>
