<svg xmlns="http://www.w3.org/2000/svg" viewBox="0 0 25 25" width="25" height="25">
  <path fill="#9B4F96" d="M22.539 5.996 13.105.566c-.156-.098-.371-.137-.605-.137s-.449.059-.605.137L2.52 6.015c-.332.195-.566.684-.566 1.055v10.879c0 .215.039.469.195.684L23.008 6.524a1.4 1.4 0 0 0-.469-.527"/>
  <path fill="#68217A" d="M2.09 18.613c.098.156.234.293.371.371l9.414 5.449c.156.098.371.137.605.137s.449-.059.605-.137l9.375-5.449c.332-.195.566-.684.566-1.055V7.051c0-.176-.02-.371-.117-.547z"/>
  <path fill="#fff" d="M16.66 14.863a4.79 4.79 0 0 1-4.16 2.422c-2.637 0-4.785-2.148-4.785-4.785S9.863 7.715 12.5 7.715c1.777 0 3.34.977 4.16 2.441l2.539-1.465c-1.328-2.324-3.828-3.906-6.699-3.906-4.258 0-7.715 3.457-7.715 7.715s3.457 7.715 7.715 7.715a7.72 7.72 0 0 0 6.68-3.867zm2.285-1.933.176-.84h-.82v-.918h.996l.234-1.211h.957l-.234 1.191h.742l.234-1.191h.938l-.234 1.191h.469v.918h-.645l-.176.84h.82v.918h-.996L21.172 15h-.957l.234-1.172h-.742L19.473 15h-.938l.234-1.172H18.3v-.918h.645zm.938 0h.742l.176-.84h-.742z"/>
</svg>
