<svg fill="#512BD4" viewBox="0 0 25 25" xmlns="http://www.w3.org/2000/svg" width="25" height="25">
  <path d="M25 9.135h-2.571v7.88h-1.484v-7.88H18.38V7.844H25zm-7.138 7.88H12.84V7.844h4.823v1.292h-3.339v2.598H17.4v1.285h-3.076v2.713h3.538zm-6.988 0H9.252l-4.273-6.741a3 3 0 0 1-.269-.531h-.037q.05.295.05 1.26v6.013H3.289V7.844h1.728l4.13 6.583q.26.408.336.563h.025q-.063-.365-.063-1.234V7.843h1.429zm-9.066-.722a.904.864 0 0 1-.905.864.904.864 0 0 1-.904-.865.904.864 0 0 1 .904-.863.904.864 0 0 1 .905.864"/>
</svg>
