<svg xmlns="http://www.w3.org/2000/svg" viewBox="0 0 25 25" width="25" height="25">
  <path fill="#F34F29" d="M24.363 11.402 13.598.637a1.59 1.59 0 0 0-2.246 0L9.117 2.873l2.836 2.836a1.887 1.887 0 0 1 2.388 2.404l2.733 2.733a1.89 1.89 0 0 1 1.952 3.12 1.89 1.89 0 0 1-2.672 0 1.89 1.89 0 0 1-.411-2.055l-2.55-2.549v6.707a1.9 1.9 0 0 1 .5.357 1.89 1.89 0 1 1-2.672 0 1.9 1.9 0 0 1 .619-.412V9.245a1.9 1.9 0 0 1-.619-.412 1.89 1.89 0 0 1-.407-2.066L8.019 3.971.637 11.352a1.59 1.59 0 0 0 0 2.246l10.765 10.764c.62.62 1.625.62 2.246 0l10.714-10.714a1.59 1.59 0 0 0 0-2.246"/>
</svg>
