<svg height="24.19" viewBox="0.32 0.323 1.355 1.325" width="25" xmlns="http://www.w3.org/2000/svg">
  <path d="M.957.815V.94L.656.639l.1-.1.152.152a.1.1 0 0 0-.006.034.1.1 0 0 0 .055.089m.092.018.047.047-.047.047zM1.336.64l-.181.181L1.094.76a.1.1 0 0 0 .005-.047.1.1 0 0 0-.094-.087.1.1 0 0 0-.039.006L.815.48.944.352a.074.074 0 0 1 .104 0z" fill="#ff8080"/>
  <path d="m.897 1.055-.274.274-.271-.269A.085.085 0 0 1 .353.941l.28-.28.264.265a.09.09 0 0 1 0 .129" fill="#80b3ff"/>
  <path d="M1.05 1.088v.115a.095.095 0 0 1 .045.099.09.09 0 0 1-.074.075.095.095 0 0 1-.064-.177v-.127a.01.01 0 0 0-.016-.007l-.287.287.295.295a.073.073 0 0 0 .104 0l.278-.278z" fill="#ffe680"/>
  <path d="m1.635 1.075-.265.265-.286-.286a.086.086 0 0 1 0-.121L1.117.9l.073.073a.099.099 0 1 0 .059-.059L1.177.842l.185-.185.273.273a.1.1 0 0 1 0 .144" fill="#8dd35f"/>
</svg>
