<svg xmlns="http://www.w3.org/2000/svg" viewBox="0 0 25 25" width="25" height="25">
  <path fill="#E44D26" d="M3.718 22.241 1.764.324h21.472L21.28 22.238l-8.793 2.438z"/>
  <path fill="#F16529" d="m12.5 22.813 7.105-1.97 1.672-18.726H12.5z"/>
  <path fill="#EBEBEB" d="M12.5 10.245H8.943l-.246-2.753H12.5V4.804H5.76l.064.721.661 7.408H12.5zm0 6.981-.012.003-2.994-.809-.191-2.144H6.605l.377 4.221 5.506 1.529.012-.003z"/>
  <path fill="#fff" d="M12.491 10.245v2.688h3.31l-.312 3.486-2.998.809v2.797l5.511-1.527.04-.454.632-7.077.065-.722h-.724zm0-5.441v2.688h6.493l.054-.604.123-1.363.064-.721z"/>
</svg>
