<svg xmlns="http://www.w3.org/2000/svg" viewBox="0 0 25 25" width="25" height="25">
  <path fill="#fff" d="M12.495 24.432c-3.187 0-6.183-1.241-8.437-3.495S.563 15.687.563 12.5s1.242-6.183 3.495-8.437S9.308.568 12.495.568s6.183 1.241 8.437 3.495 3.495 5.25 3.495 8.437-1.241 6.183-3.495 8.437-5.25 3.495-8.437 3.495"/>
  <path fill="none" stroke="#858585" stroke-dasharray=".407,.8139" stroke-linecap="round" stroke-linejoin="round" stroke-miterlimit="7.976" stroke-width=".167" d="M12.495 12.458h11.932m-11.932 0 8.437-8.437m-8.437 8.437V.526m0 11.932L4.058 4.021m8.437 8.437H.563m11.932 0-8.437 8.437m8.437-8.437V24.39m0-11.932 8.437 8.437" opacity=".9"/>
  <g fill="none" stroke="#818181" stroke-dasharray=".407,.8139" stroke-linecap="square" stroke-linejoin="round" stroke-miterlimit="199.409" stroke-width=".856">
    <path d="m13.821 12.458-.039-.321-.116-.301-.185-.265-.244-.212-.288-.147-.314-.073-.323.006-.312.084-.283.156-.236.22-.176.271-.105.306-.028.322.051.319.126.297.194.258.251.203.293.136.317.062.323-.017.309-.095.277-.166.229-.229.166-.277.095-.309.021-.231h0" opacity=".9"/>
    <path d="m16.472 12.458-.039-.553-.115-.543-.19-.521-.26-.49-.326-.449-.385-.399-.437-.342-.481-.277-.514-.208-.539-.134-.552-.058-.555.019-.546.096-.528.171-.499.243-.46.31-.412.371-.357.425-.294.47-.226.507-.153.533-.077.55v.555l.077.55.153.533.226.507.294.47.357.425.412.371.46.31.499.243.528.171.546.096.555.02.552-.058.539-.134.514-.208.481-.277.437-.342.385-.399.326-.449.26-.49.19-.521.115-.543.039-.553h0" opacity=".9"/>
    <path d="m19.124 12.458-.036-.693-.108-.685-.18-.67-.248-.648-.315-.618-.378-.582-.437-.539-.491-.49-.539-.437-.582-.378-.618-.315-.648-.249-.67-.179-.686-.108-.693-.036-.693.036-.685.108-.67.18-.648.248-.618.315-.582.378-.539.437-.491.49-.437.539-.378.582-.315.618-.249.648-.179.67-.108.685-.036.693.036.693.108.685.18.67.248.648.315.618.378.582.437.539.491.49.539.437.582.378.618.315.648.248.67.18.686.108.693.036.693-.036.685-.109.67-.179.648-.248.618-.315.582-.378.539-.437.491-.49.437-.539.378-.582.315-.618.248-.648.18-.67.108-.685.036-.693h0" opacity=".9"/>
    <path d="m21.775 12.458-.051-.97-.152-.959-.251-.938-.348-.907-.441-.866-.529-.815-.611-.755-.687-.687-.755-.611-.815-.529-.865-.441-.907-.348-.938-.251-.959-.152-.97-.051-.97.051-.959.152-.938.251-.907.348-.866.441-.814.529-.755.611-.687.687-.611.755-.529.814-.441.866-.348.907-.251.938-.152.959-.051.97.051.97.152.959.251.938.348.907.441.865.529.815.611.755.687.687.755.611.815.529.866.441.907.348.938.252.959.152.97.051.97-.051.959-.152.938-.252.907-.348.866-.441.814-.529.755-.611.687-.687.611-.755.529-.814.441-.866.348-.907.251-.938.152-.959.051-.97h0" opacity=".9"/>
  </g>
  <path fill="#11557c" d="M12.5 24.609c-3.234 0-6.275-1.26-8.563-3.547S.391 15.735.391 12.5s1.26-6.275 3.547-8.563S9.265.391 12.5.391s6.276 1.26 8.563 3.547 3.546 5.327 3.546 8.562-1.26 6.276-3.547 8.563-5.327 3.546-8.562 3.546m0-23.863a11.68 11.68 0 0 0-8.311 3.443C1.969 6.409.746 9.36.746 12.5s1.223 6.091 3.443 8.311 5.171 3.443 8.311 3.443 6.091-1.223 8.311-3.443 3.443-5.171 3.443-8.311-1.223-6.091-3.443-8.311A11.68 11.68 0 0 0 12.5.746"/>
  <path fill="#004cff" d="m12.495 12.458.025-.008.025-.008.025-.008.025-.008.025-.008.025-.008.025-.008.025-.008.025-.008.025-.008.025-.008.025-.008.025-.008.025-.008.025-.008.025-.008.025-.008.025-.008.025-.008.025-.008.025-.008.025-.008.025-.008.025-.008.025-.008.025-.008.025-.008.025-.008.025-.008.025-.008.025-.008.025-.008.025-.008.025-.008.025-.008.025-.008.025-.008.025-.008.025-.008.025-.008.025-.008.025-.008.025-.008.025-.008.025-.008.025-.008.025-.008.025-.008.025-.008.025-.008.025-.008.025-.008.025-.008.025-.008.025-.008.025-.008.025-.008.025-.008.025-.008.025-.008.025-.008.025-.008.025-.008.025-.008.025-.008.025-.008.025-.008.025-.008.025-.008.025-.008.025-.008.025-.008.025-.008.025-.008.025-.008.025-.008.025-.008.025-.008.025-.008.025-.008.025-.008.025-.008.025-.008.025-.008.025-.008.025-.008.025-.008.025-.008.025-.008.025-.008.025-.008.025-.008.025-.008.025-.008.025-.008.025-.008.025-.008.025-.008.025-.008.025-.008.005.009.003.008.003.008.003.008.003.008.003.008.002.008.002.008.002.008.002.008.002.008.002.008.002.008.002.008.002.008.002.008.002.008.002.008.002.008.002.008.002.008.002.008.002.008.002.008.002.008.002.008.002.008.002.008.002.008.002.008.002.008.002.008.002.008.002.008.002.008.002.008.002.008.002.008.002.008.002.008.002.008.002.008.002.008.001.008.001.008.001.008.001.008.001.008.001.008.001.008.001.008.001.008.001.008.001.008.001.008.001.008.001.008.001.008.001.008.001.008.001.008.001.008.001.008.001.008.001.008.001.008.001.008.001.008.001.008.001.008.001.008.001.008.001.008.001.008.001.008.001.008.001.008.001.008.001.008.001.008.001.008.001.008v.146h-2.607z" opacity=".6"/>
  <path fill="#ceff29" d="m12.495 12.458.028-.074.028-.074.028-.074.028-.074.028-.074.028-.074.028-.074.028-.074.028-.074.028-.074.028-.074.028-.074.028-.074.028-.074.028-.074.028-.074.028-.074.028-.074.028-.074.028-.074.028-.074.028-.074.028-.074.028-.074.028-.074.028-.074.028-.074.028-.074.028-.074.028-.074.028-.074.028-.074.028-.074.028-.074.028-.074.028-.074.028-.074.028-.074.028-.074.028-.074.028-.074.028-.074.028-.074.028-.074.028-.074.028-.074.028-.074.028-.074.028-.074.028-.074.028-.074.028-.074.028-.074.028-.074.028-.074.028-.074.028-.074.028-.074.028-.074.028-.074.028-.074.028-.074.028-.074.028-.074.028-.074.028-.074.028-.074.028-.074.028-.074.028-.074.028-.074.028-.074.028-.074.028-.074.028-.074.028-.074.028-.074.028-.074.028-.074.028-.074.028-.074.028-.074.028-.074.028-.074.028-.074.028-.074.028-.074.028-.074.028-.074.028-.074.028-.074.028-.074.028-.074.028-.074.028-.074.028-.074.028-.074.03-.08.028-.074.028-.074.023.009.023.009.023.009.023.009.023.009.023.009.023.009.023.009.023.009.023.01.023.01.023.01.023.01.023.01.023.01.023.01.023.01.023.01.023.01.023.01.023.01.023.01.023.01.023.011.023.011.023.011.023.011.022.011.022.011.022.011.022.011.022.011.022.011.022.011.022.011.022.011.022.011.022.012.022.012.022.012.022.012.022.012.022.012.022.012.022.012.022.012.022.012.022.012.022.012.022.012.022.012.022.013.022.013.022.013.021.013.021.013.021.013.021.013.021.013.021.013.021.013.021.013.021.013.021.013.021.013.021.013.021.013.021.013.021.013.021.014.021.014.021.014.021.014.021.014.021.014.021.014.021.014.021.014.021.014.021.014.021.014.02.014.02.014.02.014.02.015.02.015.02.015.02.015.02.015.02.015.02.015.02.015.02.015.02.015.02.015.02.015.02.015.02.015.02.015.02.016-.05.062-.05.062-.05.062-.05.062-.05.062-.05.062-.05.062-.05.062-.05.062-.05.062-.05.062-.05.062-.05.062-.049.063-.05.062-.05.062-.05.062-.05.062-.05.062-.049.063-.05.062-.05.062-.05.062-.05.062-.05.062-.05.062-.05.062-.05.062-.05.062-.05.062-.05.062-.05.062-.05.062-.05.062-.05.062-.05.062-.05.062-.05.062-.05.062-.05.062-.05.062-.05.062-.05.062-.05.062-.05.062-.05.062-.05.062-.05.062-.05.062-.05.062-.05.062-.049.065-.05.062-.05.062-.05.062-.05.062-.05.062-.05.063-.05.062-.05.062-.05.062-.05.062-.05.062-.05.062-.05.062-.05.062-.05.062-.05.062-.05.062-.05.062-.05.062-.05.062-.05.062-.05.062-.05.062-.05.062-.05.062-.05.062-.05.062-.05.062-.049.064-.05.062-.05.062-.05.062-.05.062-.05.062-.05.062-.05.062-.05.062-.05.062-.05.062-.05.062-.05.062-.05.062-.05.062-.05.062-.05.062-.05.062-.05.062z" opacity=".6"/>
  <path fill="#ff6800" d="m12.495 12.458-.068-.081-.068-.081-.068-.081-.068-.081-.068-.081-.068-.081-.068-.081-.068-.081-.068-.081-.068-.081-.068-.081-.068-.081-.068-.081-.068-.081-.068-.081-.068-.081-.068-.081-.068-.081-.068-.081-.068-.081-.068-.081-.068-.081-.068-.081-.068-.081-.068-.081-.068-.081-.068-.081-.068-.081-.068-.081-.068-.081-.068-.081-.068-.081-.068-.081-.068-.081-.068-.081-.068-.081-.068-.081-.068-.081-.068-.081-.068-.081-.068-.081-.068-.081-.068-.081-.068-.081-.068-.081-.068-.081-.068-.081-.068-.081-.068-.081-.068-.081-.068-.081-.068-.081-.068-.081-.068-.081-.068-.081-.068-.081-.068-.081-.068-.081-.068-.081-.068-.081-.068-.081-.068-.081-.068-.081-.068-.081-.068-.081-.068-.081-.068-.081-.068-.081-.068-.081-.068-.081-.068-.081-.068-.081-.068-.081-.068-.081-.068-.081-.068-.081-.068-.081-.068-.081-.068-.081-.068-.081-.068-.081-.068-.081-.068-.081-.068-.081-.068-.081-.068-.081-.068-.081-.068-.081-.068-.081-.068-.081-.068-.081-.068-.081-.068-.081-.068-.079-.068-.081-.068-.081-.068-.081-.068-.081-.068-.081-.068-.081.038-.032.039-.032.039-.032.039-.031.039-.031.039-.031.039-.031.039-.031.04-.03.04-.03.04-.03.04-.03.04-.03.04-.029.04-.029.041-.029.041-.029.041-.029.041-.029.041-.028.041-.028.041-.028.042-.028.042-.028.042-.027.042-.027.042-.027.042-.027.042-.027.042-.026.043-.026.043-.026.043-.026.043-.026.043-.025.043-.025.043-.025.043-.025.044-.025.044-.024.044-.024.044-.024.044-.024.044-.024.044-.023.044-.023.044-.023.045-.023.045-.022.045-.022.045-.022.045-.022.045-.022.045-.021.045-.021.045-.021.046-.021.046-.021.046-.02.046-.02.046-.02.046-.02.046-.02.046-.019.046-.019.046-.019.046-.019.046-.018.046-.018.047-.018.047-.018.047-.018.047-.017.047-.017.047-.017.047-.017.047-.016.047-.016.047-.016.047-.016.047-.016.048-.015.048-.015.048-.015.048-.015.048-.014.048-.014.048-.014.048-.014.048-.013.048-.013.048-.013.048-.013.048-.013.048-.012.048-.012.049-.012.049-.012.049-.012.049-.011.024.103.024.103.024.103.024.103.024.103.024.103.024.103.024.103.024.103.024.103.024.103.024.103.024.103.024.103.024.103.024.103.024.103.024.103.024.103.024.103.024.103.024.103.024.103.024.103.024.103.024.103.024.103.024.103.024.103.024.103.024.103.024.103.024.103.022.106.024.103.024.103.024.103.024.103.024.103.024.103.024.103.024.103.024.103.024.103.024.103.024.103.024.103.024.103.024.103.024.103.024.103.024.103.024.103.024.103.024.103.024.103.024.103.024.103.024.103.024.103.024.103.024.103.024.103.024.103.024.103.024.103.024.103.024.103.024.103.024.103.024.103.024.103.024.103.024.103.024.103.024.103.024.103.024.103.024.103.024.103.024.103.024.103.024.103.024.103.024.103.024.103.024.103.024.103.024.103.024.103.024.103.024.103.024.103.024.103.024.103.024.103.024.103.024.103.024.103z" opacity=".6"/>
  <path fill="#ffc400" d="m12.495 12.458-.091.017-.091.017-.091.017-.091.017-.091.017-.091.017-.091.017-.091.017-.091.017-.09.016-.091.017-.091.017-.091.017-.091.017-.091.017-.091.017-.091.017-.091.017-.091.017-.091.017-.091.017-.09.016-.091.017-.091.017-.091.017-.091.017-.091.017-.091.017-.091.017-.091.017-.091.017-.091.017-.091.017-.091.017-.091.017-.091.017-.091.017-.091.017-.091.017-.091.017-.091.017-.091.017-.091.017-.091.017-.091.017-.091.017-.091.017-.091.017-.091.017-.089.016-.091.017-.091.017-.091.017-.091.017-.091.017-.091.017-.091.017-.091.017-.091.017-.091.017-.091.017-.091.017-.091.017-.091.017-.091.017-.091.017-.091.017-.091.017-.091.017-.091.017-.091.017-.091.017-.091.017-.091.017-.091.017-.091.017-.091.017-.091.017-.091.017-.091.017-.091.017-.091.017-.091.017-.091.017-.091.017-.088.015-.091.017-.091.017-.091.017-.091.017-.091.017-.091.017-.091.017-.091.017-.091.017-.091.017-.091.017-.091.017-.091.017-.091.017-.01-.057-.01-.057-.01-.058-.009-.058-.009-.058-.007-.058-.008-.058-.008-.058-.007-.058-.007-.058-.007-.058-.006-.058-.006-.058-.005-.058-.005-.058-.005-.058-.004-.058-.004-.058-.004-.058-.003-.058-.003-.058-.003-.058-.002-.058-.002-.058-.002-.058-.001-.058-.001-.058v-.174l.001-.058.001-.058.001-.058.002-.058.002-.058.003-.058.003-.058.003-.058.004-.058.004-.058.004-.058.005-.058.005-.058.005-.058.006-.058.006-.058.007-.058.007-.058.007-.058.008-.058.008-.058.008-.058.009-.058.009-.058.009-.058.01-.057.01-.057.011-.057.011-.057.011-.057.012-.057.012-.057.012-.057.013-.057.013-.057.013-.057.014-.057.014-.057.014-.056.015-.056.015-.056.016-.056.016-.056.016-.056.017-.056.017-.056.017-.056.018-.056.018-.055.018-.055.019-.055.019-.055.019-.055.02-.055.02-.055.021-.055.021-.054.021-.054.021-.054.022-.054.022-.054.022-.054.023-.054.023-.054.023-.053.024-.053.024-.053.024-.053.025-.053.025-.053.084.04.084.04.084.04.084.04.084.04.084.04.084.04.084.04.084.04.084.04.084.04.084.04.084.04.084.04.084.04.084.04.084.04.084.04.084.04.084.04.084.04.084.04.084.04.084.04.084.04.084.04.084.04.084.04.084.04.084.04.084.04.084.04.084.04.084.04.084.04.084.04.084.04.084.04.084.04.084.04.084.04.084.04.084.04.084.04.084.04.084.04.084.04.084.04.084.04.084.04.084.04.084.04.084.04.084.04.084.04.084.04.084.04.084.04.084.04.084.04.084.04.084.04.084.04.084.04.084.04.084.04.084.04.084.04.084.04.084.04.084.04.084.04.084.04.084.04.084.04.084.04.084.04.084.04.084.04.084.04.084.04.084.04.084.04.084.04.084.04.084.04.084.04.084.04.084.04.084.04.084.04.084.04.084.04.084.04.084.04.084.04.084.04.084.04.084.04z" opacity=".6"/>
  <path fill="#29ffce" d="m12.495 12.458-.044.03-.044.03-.044.03-.044.03-.044.03-.044.03-.044.03-.044.029-.044.03-.044.03-.044.03-.044.03-.044.03-.044.03-.044.03-.044.03-.044.03-.044.03-.044.03-.044.03-.044.03-.044.03-.044.03-.044.03-.044.03-.044.03-.044.03-.044.03-.044.03-.044.03-.044.03-.044.03-.044.03-.044.03-.044.03-.044.03-.044.03-.044.03-.044.03-.044.03-.044.03-.044.03-.044.03-.044.03-.044.03-.044.03-.044.03-.044.03-.044.03-.044.03-.044.03-.044.03-.044.03-.044.03-.045.027-.044.03-.044.03-.044.03-.044.03-.044.03-.044.03-.044.03-.044.03-.044.03-.044.03-.044.03-.044.03-.044.03-.044.03-.044.03-.044.03-.044.03-.044.03-.044.03-.044.03-.044.03-.044.03-.044.03-.044.03-.044.03-.044.03-.044.03-.044.03-.044.03-.044.03-.044.03-.044.03-.044.03-.044.03-.044.03-.044.03-.044.03-.044.03-.044.03-.044.03-.044.03-.044.03-.044.03-.045.027-.044.03-.005-.007-.005-.007-.005-.007-.005-.007-.005-.007-.005-.007-.005-.007-.005-.007-.005-.007-.005-.007-.005-.007-.005-.007-.005-.007-.005-.007-.004-.007-.004-.007-.004-.007-.004-.007-.004-.007-.004-.007-.004-.007-.004-.007-.004-.007-.004-.007-.004-.007-.004-.007-.004-.007-.004-.007-.004-.007-.004-.007-.004-.007-.004-.007-.004-.007-.004-.007-.004-.007-.004-.007-.004-.007-.004-.007-.004-.007-.004-.007-.004-.007-.004-.007-.004-.007-.004-.007-.004-.007-.004-.007-.004-.007-.004-.007-.004-.007-.004-.007-.004-.007-.004-.007-.004-.007-.004-.007-.004-.007-.004-.007-.004-.007-.004-.007-.004-.007-.004-.007-.004-.007-.004-.007-.004-.007-.004-.007-.004-.007-.004-.007-.004-.007-.004-.007-.004-.007-.004-.007-.004-.007-.004-.007-.004-.007-.004-.007-.004-.007-.004-.007-.004-.007-.004-.007-.004-.007-.004-.007-.004-.007-.004-.007-.004-.007-.004-.007-.004-.007-.004-.007-.004-.007-.004-.007-.004-.007-.004-.007-.004-.007-.004-.007-.004-.007-.004-.007-.004-.007-.004-.007-.004-.007-.004-.008-.004-.007-.004-.007.048-.023.048-.023.048-.023.048-.023.048-.023.048-.023.048-.023.048-.023.048-.023.048-.023.048-.023.048-.023.048-.023.048-.023.048-.023.048-.023.048-.023.048-.023.048-.023.048-.023.048-.023.048-.023.048-.023.048-.023.048-.023.048-.023.048-.023.048-.023.048-.023.048-.023.048-.023.048-.023.048-.023.048-.023.048-.023.048-.023.048-.023.048-.023.048-.023.048-.023.048-.023.048-.023.048-.023.048-.023.048-.023.048-.023.048-.023.048-.023.048-.023.048-.023.048-.023.048-.023.048-.023.048-.023.048-.023.048-.023.048-.023.048-.023.048-.023.048-.023.048-.023.048-.023.048-.023.048-.023.048-.023.048-.023.048-.023.048-.023.048-.023.048-.023.048-.023.048-.023.048-.023.048-.023.048-.023.048-.023.048-.023.048-.023.048-.023.048-.023.048-.023.048-.023.048-.023.048-.023.048-.023.048-.023.048-.023.048-.023.048-.023.048-.023.048-.023.048-.023.048-.023.048-.023.048-.023.048-.023.048-.023.048-.023.048-.023z" opacity=".6"/>
  <path fill="#7dff7a" d="m12.495 12.458.011.065.011.065.011.065.011.065.011.065.011.065.011.065.011.065.011.065.011.065.011.065.011.065.011.065.011.065.011.065.011.065.011.065.011.065.011.065.011.065.011.065.011.065.011.065.011.065.011.065.011.065.011.065.011.065.011.065.011.065.011.065.011.065.011.065.011.065.011.065.011.065.011.065.011.065.011.065.011.065.011.065.011.065.011.065.011.065.011.065.011.065.011.065.011.065.011.065.011.065.011.065.011.065.011.065.011.065.011.065.011.065.011.065.011.065.011.065.011.065.011.065.011.065.011.065.011.065.011.065.011.065.011.065.011.065.011.065.011.065.011.065.011.065.011.065.011.065.011.065.011.065.011.065.011.065.011.065.011.065.011.065.011.065.011.065.011.065.011.065.011.065.011.065.011.065.011.065.011.065.011.065.011.065.011.065.011.065.011.065.011.065.011.065.011.065.011.065.011.065-.026.004-.026.004-.026.004-.026.004-.026.004-.026.004-.026.004-.026.004-.026.004-.026.003-.026.003-.026.003-.026.003-.026.003-.026.003-.026.003-.026.003-.026.003-.026.003-.026.002-.026.002-.026.002-.026.002-.026.002-.026.002-.026.002-.026.002-.026.002-.026.001-.026.001-.026.001-.026.001-.026.001-.026.001-.026.001-.026.001-.026.001-.026.001h-.26l-.026-.001-.026-.001-.026-.001-.03-.009-.026-.001-.026-.001-.026-.001-.026-.001-.026-.001-.026-.002-.026-.002-.026-.002-.026-.002-.026-.002-.026-.002-.026-.002-.026-.002-.026-.002-.026-.002-.026-.003-.026-.003-.026-.003-.026-.003L11.72 19l-.026-.003-.026-.003-.026-.003-.026-.003-.026-.004-.026-.004-.026-.004-.026-.004-.026-.004-.026-.004-.026-.004-.026-.004-.026-.004-.026-.004-.026-.004-.026-.004-.026-.005-.026-.005-.026-.005-.026-.005-.026-.005-.026-.005-.026-.005-.025-.005-.025-.005-.025-.005-.025-.006-.025-.006.015-.065.015-.065.015-.065.015-.065.015-.065.015-.065.015-.065.015-.065.015-.065.015-.065.015-.065.015-.065.015-.065.015-.065.015-.065.015-.065.015-.065.015-.065.015-.065.015-.065.015-.065.015-.065.015-.065.015-.065.015-.065.015-.065.015-.065.015-.065.015-.065.015-.065.015-.065.015-.065.015-.065.015-.065.015-.065.015-.065.015-.065.015-.065.015-.065.015-.065.015-.065.015-.065.015-.065.015-.065.015-.065.015-.065.015-.065.015-.065.015-.065.015-.065.015-.065.015-.065.015-.065.015-.065.015-.065.015-.065.015-.065.015-.065.015-.065.015-.065.015-.065.015-.065.015-.065.015-.065.015-.065.015-.065.015-.065.015-.065.015-.065.015-.065.015-.065.015-.065.015-.065.015-.065.015-.065.015-.065.015-.065.015-.065.015-.065.015-.065.015-.065.015-.065.015-.065.015-.065.015-.065.015-.065.015-.065.015-.065.015-.065.015-.065.015-.065.015-.065.015-.065.015-.065.015-.065.015-.065.015-.065.015-.065.015-.065z" opacity=".6"/>
  <path fill="#ff6800" d="m12.495 12.458.084.065.084.065.084.065.084.065.084.065.084.065.084.065.084.065.084.065.084.065.084.065.084.065.084.065.084.065.085.064.084.065.084.065.084.065.084.065.084.065.084.065.084.065.084.065.084.065.084.065.084.065.084.065.084.065.084.065.084.065.084.065.084.065.084.065.084.065.084.065.084.065.084.065.084.065.084.065.084.065.084.065.084.065.084.065.084.065.084.065.084.065.084.065.084.065.084.065.084.065.084.065.084.065.084.065.084.065.084.065.084.065.084.065.084.065.084.065.084.065.084.065.084.065.084.065.084.065.084.065.084.065.084.065.084.065.084.065.084.065.084.065.084.065.084.065.084.065.084.065.084.065.084.065.084.065.084.065.084.065.084.065.084.065.084.065.084.065.084.065.084.065.084.065.084.065.084.065.084.065.084.065.084.065.084.065.084.065.084.065.084.065.084.065.084.065.084.065.084.065-.015.02-.015.02-.015.02-.015.02-.016.02-.016.02-.016.02-.016.02-.016.019-.016.019-.016.019-.016.019-.016.019-.016.019-.016.019-.016.019-.016.019-.016.019-.016.019-.016.019-.016.019-.016.019-.016.019-.016.019-.016.019-.017.019-.017.019-.017.019-.017.019-.017.019-.017.019-.017.019-.017.019-.017.018-.017.018-.017.018-.017.018-.017.018-.017.018-.017.018-.017.018-.017.018-.017.018-.017.018-.017.018-.017.018-.017.018-.017.018-.018.018-.018.018-.018.018-.018.018-.018.018-.018.018-.018.018-.018.018-.018.018-.018.017-.018.017-.018.017-.018.017-.018.017-.018.017-.018.017-.018.017-.018.017-.018.017-.018.017-.018.017-.018.017-.018.017-.018.017-.013.013-.019.017-.019.017-.019.017-.019.017-.019.017-.019.017-.019.016-.019.016-.019.016-.019.016-.019.016-.019.016-.019.016-.019.016-.019.016-.019.016-.019.016-.019.016-.019.016-.019.016-.019.016-.019.016-.019.016-.019.016-.02.016-.02.016-.02.016-.066-.083-.066-.083-.066-.083-.066-.083-.066-.083-.066-.083-.066-.083-.066-.083-.066-.083-.066-.083-.066-.083-.066-.083-.066-.083-.066-.083-.066-.083-.066-.083-.066-.083-.066-.083-.066-.083-.066-.083-.066-.083-.066-.083-.066-.083-.066-.083-.066-.083-.064-.081-.066-.083-.066-.083-.066-.083-.066-.083-.066-.083-.066-.083-.066-.083-.066-.083-.066-.083-.066-.083-.066-.083-.066-.083-.066-.083-.066-.083-.066-.083-.066-.083-.066-.083-.066-.083-.066-.083-.066-.083-.066-.083-.066-.083-.066-.083-.066-.083-.066-.083-.066-.083-.066-.083-.066-.083-.066-.083-.066-.083-.066-.083-.066-.083-.066-.083-.066-.083-.066-.083-.066-.083-.066-.083-.066-.083-.066-.083-.066-.083-.066-.083-.066-.083-.066-.083-.066-.083-.066-.083-.066-.083-.066-.083-.066-.083-.066-.083-.066-.083-.066-.083-.066-.083-.066-.083-.066-.083-.066-.083-.066-.083-.066-.083-.066-.083-.066-.083-.066-.083-.066-.083-.066-.083-.066-.083-.066-.083-.066-.083-.066-.083-.066-.083-.066-.083-.066-.083-.066-.083-.066-.083-.066-.083-.066-.083z" opacity=".6"/>
  <path fill="#2c2c2c" d="M15.147 12.539h-2.652a.081.081 0 0 1-.025-.157l2.522-.819a.08.08 0 0 1 .102.052c.089.273.134.557.134.844a.08.08 0 0 1-.081.081m-2.142-.162h2.06a2.5 2.5 0 0 0-.101-.636z"/>
  <path fill="#2c2c2c" d="M12.495 12.538a.08.08 0 0 1-.076-.109l2.796-7.447a.08.08 0 0 1 .104-.047 8 8 0 0 1 2.187 1.24.08.08 0 0 1 .013.113l-4.961 6.22a.08.08 0 0 1-.063.03m2.842-7.423-2.587 6.894 4.591-5.757a7.9 7.9 0 0 0-2.004-1.137"/>
  <path fill="#2c2c2c" d="M12.495 12.538a.08.08 0 0 1-.062-.029L5.636 4.368a.08.08 0 0 1 .01-.114 10.7 10.7 0 0 1 4.471-2.215.08.08 0 0 1 .097.061l2.36 10.34a.08.08 0 0 1-.043.09.1.1 0 0 1-.036.008M5.812 4.327l6.529 7.821-2.267-9.933a10.55 10.55 0 0 0-4.263 2.112"/>
  <path fill="#2c2c2c" d="M3.364 14.196a.08.08 0 0 1-.079-.066 9.37 9.37 0 0 1 .777-5.733.08.08 0 0 1 .108-.038l8.361 4.026a.081.081 0 0 1-.021.152l-9.131 1.657-.015.001m.808-5.656a9.2 9.2 0 0 0-.742 5.482l8.807-1.598z"/>
  <path fill="#2c2c2c" d="M8.136 15.558a.08.08 0 0 1-.067-.035 5.5 5.5 0 0 1-.425-.73.08.08 0 0 1 .038-.108l4.778-2.301a.081.081 0 0 1 .081.139l-4.359 3.021a.1.1 0 0 1-.046.014m-.311-.762a5 5 0 0 0 .331.569l3.449-2.389z"/>
  <path fill="#2c2c2c" d="M12.498 19.166a6.8 6.8 0 0 1-1.496-.167.08.08 0 0 1-.061-.097l1.475-6.463c.009-.037.044-.069.081-.063a.08.08 0 0 1 .077.067l1.11 6.535a.08.08 0 0 1-.066.093 6.6 6.6 0 0 1-1.121.094m-1.381-.307a6.6 6.6 0 0 0 2.395.067l-1.029-6.054z"/>
  <path fill="#2c2c2c" d="M19.108 20.83a.08.08 0 0 1-.063-.03l-6.613-8.292a.081.081 0 0 1 .113-.114l8.366 6.519a.08.08 0 0 1 .014.113 10.7 10.7 0 0 1-1.767 1.786.1.1 0 0 1-.05.017m-6.124-7.888 6.137 7.695a10.6 10.6 0 0 0 1.627-1.645z"/>
</svg>
