<svg viewBox="-2.415 -2.975 25 25" xmlns="http://www.w3.org/2000/svg" width="25" height="25">
  <g stroke-width="0"/>
  <g stroke-linecap="round" stroke-linejoin="round"/>
  <path d="M-2.415.86h25v17.328h-25z" fill="none"/>
  <path d="M5.24 14.854h-.677q-.035-1.714-.199-3.224h-.007l-1.029 3.224h-.515L1.789 11.63h-.004q-.115 1.449-.144 3.224h-.62q.06-2.157.299-4.044h.84l.976 2.971h.007l.982-2.971h.803q.265 2.21.311 4.044m2.935-2.984q-.414 2.243-1.09 3.26-.526.784-1.156.784-.168 0-.414-.101v-.36q.121.018.281.018.294 0 .474-.161.215-.197.215-.443 0-.168-.168-.69l-.74-2.306h.665l.534 1.725q.179.586.15.821.436-1.168.61-2.546z" fill="#5d87a1"/>
  <path d="M17.184 14.854H15.26V10.81h.647v3.547h1.276zm-2.426.099-.743-.366a1.4 1.4 0 0 0 .185-.181q.474-.557.474-1.647 0-2.007-1.575-2.007-.774 0-1.204.509-.474.557-.474 1.641 0 1.066.419 1.564.384.45 1.157.45.289 0 .529-.071l.968.564zm-2.409-.907q-.246-.396-.246-1.271 0-1.528.929-1.528.485 0 .714.365.246.396.246 1.259 0 1.54-.928 1.54-.485 0-.714-.366m-1.21-.311q0 .515-.376.846-.378.329-1.011.329-.593 0-1.15-.378l.174-.347q.479.24.868.24.365 0 .572-.16a.56.56 0 0 0 .221-.449c0-.24-.168-.446-.475-.618-.284-.156-.85-.481-.85-.481-.307-.224-.46-.465-.46-.86q0-.491.344-.794.346-.303.89-.303.564 0 1.024.3l-.156.347q-.394-.168-.778-.168-.31 0-.479.15a.5.5 0 0 0-.181.384c0 .24.171.447.486.622.286.156.868.486.868.486.315.224.472.461.472.854" fill="#f8981d"/>
  <path d="M17.996 9.457c-.391-.01-.694.029-.949.136-.074.029-.19.029-.2.122.04.04.044.103.079.157a1.1 1.1 0 0 0 .254.299c.101.078.204.156.314.225.19.118.404.185.591.303.109.068.215.156.324.229.053.04.086.103.156.126v-.015c-.035-.044-.044-.109-.078-.156l-.147-.141a2.2 2.2 0 0 0-.509-.493c-.156-.109-.499-.254-.561-.434l-.01-.01c.109-.01.235-.049.336-.079.166-.044.318-.034.489-.078q.116-.031.235-.068v-.044c-.089-.089-.151-.204-.244-.289a7 7 0 0 0-.806-.601c-.151-.099-.347-.16-.509-.244-.059-.029-.156-.044-.191-.093-.089-.109-.136-.249-.2-.376a14 14 0 0 1-.4-.85c-.089-.19-.141-.381-.249-.557-.504-.829-1.05-1.334-1.891-1.826-.181-.103-.396-.147-.625-.2l-.366-.019c-.078-.034-.157-.126-.225-.171-.279-.176-.997-.557-1.201-.054-.132.318.196.631.309.791.084.111.191.24.249.366.034.084.044.171.078.259.078.215.151.454.254.654.054.101.111.21.181.301.04.054.109.078.122.166-.068.097-.074.244-.114.366-.176.551-.107 1.235.141 1.641.078.122.265.391.514.289.221-.089.171-.366.235-.61.015-.059.004-.099.034-.135v.01q.103.202.2.404c.151.24.416.489.635.654.116.089.21.24.356.294v-.018h-.01c-.029-.044-.074-.064-.111-.097a3 3 0 0 1-.254-.293 6.4 6.4 0 0 1-.547-.89c-.079-.151-.147-.318-.21-.469-.029-.059-.029-.147-.079-.176-.074.107-.181.2-.234.332-.093.21-.103.469-.136.739l-.019.009c-.156-.04-.21-.2-.269-.336-.146-.347-.171-.904-.044-1.304.034-.101.181-.425.122-.522-.029-.094-.126-.147-.181-.221a2 2 0 0 1-.176-.314c-.116-.274-.176-.576-.301-.85-.059-.126-.16-.259-.244-.376-.093-.132-.196-.225-.269-.381-.024-.054-.059-.141-.019-.2.01-.04.029-.054.068-.065.064-.053.244.015.309.044.181.074.334.141.484.244.068.049.141.141.229.166h.103c.156.034.332.009.479.054.259.084.493.204.704.336a4.3 4.3 0 0 1 1.525 1.674c.059.111.084.215.136.332.103.24.229.484.332.718.103.229.2.465.347.654.074.103.366.156.499.21.097.044.249.084.336.136.166.101.332.221.489.334.078.059.322.181.336.279m-4.988-4.247a.7.7 0 0 0-.2.025v.01h.009c.04.078.109.132.157.2l.111.234.009-.01c.069-.049.103-.126.103-.244-.029-.035-.034-.068-.059-.103-.029-.049-.091-.074-.132-.111" fill="#5d87a1"/>
  <path d="M18.46 14.854h.101v-.496h-.151l-.124.339-.135-.339h-.146v.496h.096v-.376h.004l.141.376h.074l.14-.376zm-.815 0h.107v-.41h.14v-.084H17.5v.084h.146z" fill="#f8981d"/>
</svg>
