<svg viewBox="0 0 25 25" fill="none" xmlns="http://www.w3.org/2000/svg" width="25" height="25">
  <g stroke-width="0"/>
  <g stroke-linecap="round" stroke-linejoin="round"/>
  <g fill="#599f0f">
    <path d="M13.416 1.796a1.91 1.91 0 0 0-1.833 0L3.244 6.398c-.541.284-.907.865-.9 1.469v9.269c-.004.615.38 1.202.935 1.482.798.425 1.574.893 2.387 1.289.94.461 2.114.563 3.065.082.772-.398 1.115-1.286 1.113-2.101.006-3.059.002-6.117.002-9.177.019-.136-.084-.281-.232-.278a54 54 0 0 0-1.066-.001c-.134-.013-.266.098-.255.234-.005 3.039.001 6.079-.003 9.119a1.03 1.03 0 0 1-.681.966c-.936.328-3.607-1.406-3.607-1.406a.27.27 0 0 1-.151-.258V7.914a.28.28 0 0 1 .176-.285l8.31-4.58a.3.3 0 0 1 .327.001l8.311 4.578a.29.29 0 0 1 .175.286q.001 4.586-.001 9.173a.27.27 0 0 1-.148.261c-2.745 1.516-5.521 2.984-8.241 4.545-.119.068-.254.145-.387.07-.715-.396-1.422-.807-2.134-1.206-.078-.048-.177-.07-.258-.016-.319.169-.62.305-.987.451-.516.204-.433.287.031.558l2.503 1.414a1.86 1.86 0 0 0 1.853.051l8.34-4.598c.553-.282.939-.866.935-1.481v-9.27c.005-.591-.345-1.162-.87-1.45q-4.184-2.311-8.37-4.62"/>
    <path d="M17.611 8.755c-1.091-.584-2.389-.615-3.602-.539-.877.088-1.798.329-2.436.957-.655.631-.797 1.651-.486 2.475.223.582.784.961 1.363 1.161.748.264 1.531.345 2.317.427.716.075 1.432.148 2.12.362.281.094.608.236.695.541.079.363-.008.784-.302 1.035-.934.739-3.532.626-4.455.044-.373-.248-.534-.687-.6-1.105-.007-.13-.112-.25-.253-.24a54 54 0 0 0-1.063 0c-.124-.011-.252.077-.259.203-.073 1.916 1.686 2.75 3.336 2.934.944.09 1.907.084 2.836-.117.698-.159 1.398-.452 1.878-.99.592-.653.709-1.626.443-2.44-.203-.607-.784-.997-1.377-1.197-.807-.277-1.764-.426-2.495-.495-1.063-.102-2.325-.059-2.626-.758-.12-.366-.018-.82.318-1.045.889-.602 2.698-.523 3.619-.072.422.211.667.646.768 1.085.019.129.105.263.255.258.352.006.704.002 1.055.002.121.009.254-.059.277-.183-.016-.917-.484-1.856-1.328-2.304"/>
  </g>
</svg>
