<svg xmlns="http://www.w3.org/2000/svg" viewBox="0 0 25 25" width="25" height="25">
  <path d="M1.819.49A2.09 2.09 0 0 0 .265 1.534a1.95 1.95 0 0 0-.257.999c0 .349.058.609.208.915.278.574.804.978 1.459 1.119.168.036.576.039.752.006a2.07 2.07 0 0 0 1.595-1.371c.082-.239.099-.356.099-.664 0-.299-.008-.368-.082-.604A2.06 2.06 0 0 0 2.593.542 2.3 2.3 0 0 0 1.82.489zm9.216 4.497A6.37 6.37 0 0 0 5.391 9.79c-.082.33-.113.511-.169.983-.02.169-.03 7.479-.01 7.806.029.51.102.946.238 1.416a6.38 6.38 0 0 0 4.369 4.358q.535.15 1.137.216c.197.021.404.022 4.047.022 4.069 0 3.92.002 4.346-.056a6.35 6.35 0 0 0 2.922-1.201 7 7 0 0 0 1.023-.952 7.4 7.4 0 0 0 .712-1.013 6.5 6.5 0 0 0 .755-2.197c.065-.444.06-.161.065-4.254.004-2.667.002-3.85-.008-3.992a6.34 6.34 0 0 0-1.475-3.686 9 9 0 0 0-.784-.784 6.3 6.3 0 0 0-3.064-1.406c-.484-.079-.15-.073-4.407-.076-3.113-.001-3.9.002-4.053.014m-.562 2.909a2.59 2.59 0 0 1 2.008 1.713 2.58 2.58 0 0 1-.684 2.726 2.54 2.54 0 0 1-1.752.69c-.71 0-1.335-.258-1.833-.755a2.55 2.55 0 0 1-.743-1.521 3.3 3.3 0 0 1 .006-.653 2.594 2.594 0 0 1 2.277-2.222c.155-.018.56-.006.72.022m8.315 6.367a4.1 4.1 0 0 1 2.379 1.147 4 4 0 0 1 1.045 1.672c.138.417.189.73.198 1.196.008.475-.031.806-.15 1.225a4.16 4.16 0 0 1-1.652 2.283 4.13 4.13 0 0 1-3.484.549 4.4 4.4 0 0 1-1.387-.711 4.137 4.137 0 0 1 2.209-7.381 6 6 0 0 1 .842.018m0 0" fill="#004880"/>
</svg>
