<svg xmlns="http://www.w3.org/2000/svg" viewBox="0 0 25 25" width="25" height="25">
  <path d="M10.609 5.305 6.505 3.234 1.997 5.483 6.215 7.6zm1.883.951 4.305 2.174-4.466 2.241-4.223-2.12zm5.749-2.991 4.423 2.218-3.956 1.986-4.313-2.176zm-1.904-.955L12.356.313 8.418 2.279l4.103 2.068zm-3.111 17.144v5.433l4.823-2.407-.004-5.435zm4.816-4.307-.005-5.378-4.811 2.392v5.38zm5.79-1.007v5.454l-4.114 2.052-.003-5.429zm0-1.907V6.888L19.71 8.937l.003 5.389z" color="#000" fill="#4cabcf" style="-inkscape-stroke:none"/>
  <path d="m11.523 12.161-3.248-1.634v7.059S4.301 9.132 3.934 8.372c-.047-.098-.243-.205-.292-.232C2.926 7.766.838 6.71.838 6.71v12.475l2.888 1.548V14.21s3.931 7.554 3.972 7.637.433.877.856 1.157c.561.372 2.968 1.82 2.968 1.82z" color="#000" fill="#4c75cf" style="-inkscape-stroke:none"/>
</svg>
