<svg xmlns="http://www.w3.org/2000/svg" width="25" height="25" viewBox="0 0 12 12">
  <path fill="#0277bd" d="M6.012 1.25a5.3 5.3 0 0 0-.984.092c-.962.168-1.137.519-1.137 1.167V3.5h2.25V4H2.717c-.659 0-1.236.31-1.419 1.055-.206.854-.216 1.389 0 2.281.165.665.525 1.164 1.185 1.164h.908V7.224c0-.742.671-1.474 1.441-1.474h1.809c.631 0 1.25-.466 1.25-1.094V2.509c0-.61-.44-1.066-1.054-1.168a4 4 0 0 0-.825-.091m-1.246 1c.205 0 .375.169.375.376A.375.375 0 0 1 4.766 3a.37.37 0 0 1-.375-.374.375.375 0 0 1 .375-.376"/>
  <path fill="#ffc107" d="M5.769 10.75c.389-.001.658-.035.984-.092.962-.168 1.137-.519 1.137-1.167V8.5H5.64V8h3.423c.659 0 1.236-.31 1.419-1.055.206-.854.216-1.389 0-2.281-.163-.665-.524-1.164-1.183-1.164h-.908v1.276c0 .742-.671 1.474-1.441 1.474H5.141c-.631 0-1.25.466-1.25 1.094v2.147c0 .61.44 1.066 1.054 1.168-.015.002.439.093.825.091m1.246-1a.377.377 0 0 1-.375-.376A.375.375 0 0 1 7.016 9c.209 0 .375.166.375.374a.376.376 0 0 1-.375.376"/>
</svg>
