<svg xmlns="http://www.w3.org/2000/svg" width="25" height="25" viewBox="0 0 214.176 214.176" xml:space="preserve" fill="#d1b81a">
  <g stroke-width="0"/>
  <g stroke-linecap="round" stroke-linejoin="round"/>
  <path d="M107.829 95.397c-9.6 0-15.133 9.409-15.133 21.04-.094 11.808 5.628 20.852 15.039 20.852 9.501 0 15.044-8.953 15.044-21.129 0-11.354-5.355-20.763-14.95-20.763"/>
  <path d="M189.922 76.608h-5.142V51.793c0-.156-.025-.311-.045-.469-.008-.984-.322-1.952-.996-2.719L142.444 1.436c-.012-.012-.025-.017-.033-.029a4.2 4.2 0 0 0-.836-.702c-.09-.06-.18-.111-.275-.164a4.4 4.4 0 0 0-.829-.349c-.078-.02-.147-.052-.225-.073a4.2 4.2 0 0 0-.964-.12H37.796c-4.635.001-8.399 3.77-8.399 8.4v68.208h-5.142c-6.628 0-12.005 5.373-12.005 12.005v62.427c0 6.625 5.377 12.004 12.005 12.004h5.142v42.734c0 4.63 3.764 8.399 8.399 8.399h138.585c4.63 0 8.399-3.768 8.399-8.399v-42.733h5.142c6.632 0 12.004-5.379 12.004-12.004V88.613c0-6.632-5.372-12.005-12.004-12.005M37.796 8.399h97.286V51.37a4.2 4.2 0 0 0 4.2 4.2h37.099v21.039H37.796zM137.904 147.25l-4.06 10.892c-8.854-2.586-16.236-5.265-24.542-8.768-1.378-.554-2.858-.833-4.334-.923-14.027-.919-27.129-11.257-27.129-31.554 0-18.637 11.811-32.665 30.355-32.665 19.014 0 29.434 14.396 29.434 31.374 0 14.118-6.549 24.077-14.76 27.77v.369c4.798 1.382 10.146 2.491 15.035 3.504m-109.422-2.673 2.863-11.627c3.785 1.938 9.591 3.873 15.593 3.873 6.455 0 9.871-2.672 9.871-6.73 0-3.878-2.953-6.093-10.426-8.766-10.335-3.6-17.069-9.32-17.069-18.365 0-10.611 8.859-18.73 23.528-18.73 7.013 0 12.181 1.481 15.868 3.137L65.576 98.72c-2.49-1.202-6.918-2.955-13.008-2.955-6.093 0-9.048 2.765-9.048 5.999 0 3.965 3.507 5.721 11.536 8.768 10.98 4.06 16.145 9.775 16.145 18.541 0 10.429-8.03 19.283-25.099 19.283-7.101-.004-14.111-1.85-17.621-3.781m147.899 58.924H37.796v-40.457h138.585zm9.318-56.068h-38.85V85.246h14.124v50.379h24.725z"/>
</svg>
