<svg width="24" height="24" viewBox="0 0 24 24" fill="none" xmlns="http://www.w3.org/2000/svg">
  <g clip-path="url(#a)">
    <path d="M6.439 23.314.75.69l22.5 6.319" fill="#fff"/>
    <path d="m9.218 13.59 1.42 5.659m4.193-4.069-5.613-1.59m1.421 5.659 4.192-4.07m-4.192 4.07-5.614-1.59m0 0 1.421 5.662 4.193-4.072m-5.614-1.59 4.192-4.069m.001 0 4.196-4.072m0-.001 4.192-4.068m-5.614-1.59 1.422 5.658m0 0L7.796 7.931m0 0 1.421 5.659m.001 0L3.604 12m0 0 1.421 5.659M2.183 6.341l1.42 5.66m4.193-4.07-5.613-1.59M3.604 12l4.192-4.07m0-.003 4.196-4.068m.001 0-5.618-1.59m0 0 1.421 5.659M2.182 6.341.762.68l5.613 1.59M2.183 6.341 6.375 2.27m12.653 8.838 4.192-4.07-5.614-1.59m0 .001 1.421 5.659m.001 0-5.614-1.59m0 0 1.417 5.662m0 0 4.197-4.073m-1.422-5.658-5.614-1.59" stroke="#000" stroke-width=".48" stroke-miterlimit="10"/>
  </g>
  <defs>
    <clipPath id="a">
      <path fill="#fff" d="M0 0h24v24H0z"/>
    </clipPath>
  </defs>
</svg>
