<svg viewBox="0 0 25 25" xmlns="http://www.w3.org/2000/svg" preserveAspectRatio="xMidYMid" width="25" height="25">
  <g stroke-width="0"/>
  <g stroke-linecap="round" stroke-linejoin="round"/>
  <path d="M3.612 19.571a1.04 1.04 0 0 1-1.078.169l-1.893-.794A1.04 1.04 0 0 1 0 17.99V6.881a1.04 1.04 0 0 1 .641-.956l1.893-.781a1.04 1.04 0 0 1 1.078.169l.424.352a.575.575 0 0 0-.911.469v12.604a.575.575 0 0 0 .911.469z" fill="#52218A"/>
  <path d="M.641 18.946A1.04 1.04 0 0 1 0 17.99v-.086a.602.602 0 0 0 1.042.404L17.188.456a1.56 1.56 0 0 1 1.776-.302l5.151 2.479A1.56 1.56 0 0 1 25 4.042v.06a.987.987 0 0 0-1.612-.763L4.036 19.206l-.424.365a1.04 1.04 0 0 1-1.078.169z" fill="#6C33AF"/>
  <path d="M.641 5.925A1.04 1.04 0 0 0 0 6.881v.086a.602.602 0 0 1 1.042-.404l16.146 17.852a1.56 1.56 0 0 0 1.776.302l5.151-2.479A1.56 1.56 0 0 0 25 20.829v-.06a.987.987 0 0 1-1.612.763L4.036 5.665 3.612 5.3a1.04 1.04 0 0 0-1.078-.156z" fill="#854CC7"/>
  <path d="M18.964 24.717a1.56 1.56 0 0 1-1.776-.302.917.917 0 0 0 1.563-.648V1.111a.917.917 0 0 0-1.563-.654 1.56 1.56 0 0 1 1.776-.302l5.151 2.477A1.56 1.56 0 0 1 25 4.04v16.792a1.56 1.56 0 0 1-.885 1.409z" fill="#B179F1"/>
  <path d="M17.94 24.831a1.56 1.56 0 0 0 1.023-.115l5.151-2.477A1.56 1.56 0 0 0 25 20.831V4.04a1.56 1.56 0 0 0-.885-1.409L18.964.154a1.56 1.56 0 0 0-1.167-.075 1.6 1.6 0 0 0-.609.377L8.885 9.639 4.036 5.665 3.612 5.3a1.04 1.04 0 0 0-.94-.216.7.7 0 0 0-.138.047l-1.893.794A1.04 1.04 0 0 0 0 6.803v11.266c.032.39.279.728.641.878l1.893.781a.7.7 0 0 0 .138.047c.33.086.681.005.94-.216l.424-.352 4.849-3.974 8.303 9.182a1.56 1.56 0 0 0 .753.417m.809-17.688-6.456 5.292 6.456 5.291zM3.125 8.86l3.232 3.576-3.232 3.575z" fill-opacity=".25" fill="url(#linearGradient-1)"/>
</svg>
