<svg viewBox="0 -11.786 75 75" fill="none" xmlns="http://www.w3.org/2000/svg" width="75" height="75">
  <g stroke-width="0"/>
  <g stroke-linecap="round" stroke-linejoin="round"/>
  <path fill="#fff" stroke="#D9D9D9" d="M6.429.536h62.142a5.893 5.893 0 0 1 5.893 5.893V45a5.893 5.893 0 0 1-5.893 5.893H6.429A5.893 5.893 0 0 1 .536 45V6.429A5.893 5.893 0 0 1 6.429.536z" stroke-width="1.071"/>
  <path fill-rule="evenodd" clip-rule="evenodd" d="M20.529 17.878c-.629.754-1.636 1.35-2.644 1.264-.125-1.02.367-2.103.945-2.772.629-.776 1.73-1.329 2.623-1.37.105 1.062-.304 2.103-.924 2.878m.913 1.466c-.887-.051-1.697.27-2.351.53-.421.167-.778.309-1.049.309-.304 0-.675-.149-1.092-.316-.546-.22-1.17-.471-1.825-.459-1.5.021-2.896.881-3.662 2.251-1.574 2.741-.409 6.797 1.112 9.028.746 1.104 1.637 2.314 2.813 2.272.516-.019.889-.179 1.273-.345.444-.19.904-.388 1.622-.388.694 0 1.135.193 1.557.377.402.177.787.345 1.361.334 1.217-.021 1.982-1.104 2.728-2.208a9.8 9.8 0 0 0 1.211-2.518l.006-.021-.029-.014c-.268-.124-2.323-1.076-2.342-3.629-.02-2.143 1.629-3.227 1.888-3.399l.032-.021c-1.05-1.571-2.686-1.741-3.253-1.784m8.425 13.479V16.264h6.139c3.168 0 5.382 2.208 5.382 5.438 0 3.228-2.256 5.459-5.466 5.459h-3.514v5.66zm2.539-14.391h2.927c2.204 0 3.463 1.189 3.463 3.282s-1.259 3.292-3.474 3.292h-2.916zM49.77 30.836c-.672 1.295-2.151 2.113-3.746 2.113-2.36 0-4.007-1.423-4.007-3.568 0-2.125 1.594-3.346 4.543-3.526l3.168-.192v-.913c0-1.35-.871-2.082-2.424-2.082-1.28 0-2.215.669-2.403 1.689h-2.287c.074-2.145 2.068-3.707 4.764-3.707 2.907 0 4.795 1.541 4.795 3.93v8.241h-2.35v-1.985zm-3.064.149c-1.353 0-2.214-.659-2.214-1.668 0-1.04.829-1.646 2.413-1.741l2.823-.181v.934c0 1.551-1.302 2.656-3.021 2.656m13.262 2.485c-1.018 2.899-2.182 3.855-4.659 3.855-.189 0-.819-.021-.964-.064v-1.985c.156.021.545.043.745.043 1.122 0 1.752-.478 2.14-1.721l.231-.733-4.302-12.054h2.654l2.99 9.781h.054l2.989-9.782h2.582z" fill="#000"/>
</svg>
