<svg xmlns="http://www.w3.org/2000/svg" viewBox="215.604 195.042 81.037 28.865" width="81.037" height="28.865">
  <rect width="75" height="37.473" x="-175.32" y="328.266" fill="#f9f9f9" fill-rule="evenodd" stroke="#000" stroke-linecap="round" stroke-linejoin="round" stroke-width=".8" rx="3.599" ry="3.599" transform="matrix(1.0805 0 0 .7703 405.037 -57.82)"/>
  <g transform="matrix(.01898 0 0 .01901 222.549 200)">
    <circle cx="512" cy="512" r="512" style="fill:#0052ff"/>
    <path d="M516.3 361.83c60.28 0 108.1 37.18 126.26 92.47H764C742 336.09 644.47 256 517.27 256 372.82 256 260 365.65 260 512.49S370 768 517.27 768c124.35 0 223.82-80.09 245.84-199.28H642.55c-17.22 55.3-65 93.45-125.32 93.45-83.23 0-141.56-63.89-141.56-149.68.04-86.77 57.43-150.66 140.63-150.66" style="fill:#fff"/>
  </g>
  <path d="M249.507 212.175q.242.62.61 1.108a3.58 4.228 0 0 1-1.723.497c-1.834 0-3.166-1.43-3.166-3.709 0-2.295 1.4-3.724 3.166-3.724.628 0 1.124.16 1.625.475q-.352.51-.573 1.144a2.506 2.96 0 0 0-.93-.207c-1.087 0-1.93.82-1.93 2.312 0 1.413.817 2.313 1.985 2.313q.501 0 .936-.209m3.69-5.828c1.808 0 3.113 1.509 3.113 3.724 0 2.2-1.305 3.709-3.112 3.709-1.794 0-3.098-1.51-3.098-3.709 0-2.215 1.304-3.724 3.098-3.724m0 1.363c-1.006 0-1.74.915-1.74 2.361 0 1.43.734 2.345 1.74 2.345 1.032 0 1.754-.915 1.754-2.345 0-1.446-.722-2.36-1.754-2.36m3.967 5.908v-7.112h1.345v7.112zm-.177-9.296a.845.998 0 0 1 1.686 0 .86 1.015 0 0 1-.843 1.01.86 1.015 0 0 1-.843-1.01m2.696 2.634a8.054 9.513 0 0 1 2.758-.61c1.535 0 2.514.689 2.514 2.697v4.575h-1.331v-4.431c0-1.028-.545-1.398-1.29-1.398a4.653 5.497 0 0 0-1.306.21v5.619h-1.345zm6.398-4.255h1.346v3.998c.284-.178.843-.353 1.37-.353 1.74 0 3.045 1.317 3.045 3.596 0 2.295-1.29 3.837-3.519 3.837-.87 0-1.63-.208-2.242-.466zm1.346 9.57c.257.095.597.144.938.144 1.234 0 2.119-.803 2.119-2.442 0-1.38-.83-2.198-1.847-2.198a2.506 2.96 0 0 0-1.21.336zm8.3-3.42c0-.772-.488-1.125-1.154-1.125a3.4 4.017 0 0 0-1.74.577v-1.38a4.009 4.735 0 0 1 1.957-.577c1.319 0 2.255.642 2.255 2.424v4.704a8.949 10.57 0 0 1-2.064.29c-1.562 0-2.704-.563-2.704-2.17 0-1.443 1.045-2.15 2.785-2.15h.665zm0 1.653h-.57c-.938 0-1.549.321-1.549 1.044 0 .738.571 1.028 1.386 1.028.204 0 .49-.034.733-.08zm2.297 1.188c.556.497 1.222.803 1.834.803.598 0 .992-.24.992-.803 0-.58-.353-.786-1.128-1.027-1.25-.339-1.78-.933-1.78-2.167 0-1.446.925-2.152 2.147-2.152.68 0 1.222.175 1.725.545v1.46c-.53-.447-1.045-.722-1.684-.722-.585 0-.897.338-.897.803s.258.706.95.932c1.374.353 1.971.962 1.971 2.248 0 1.492-.964 2.167-2.27 2.167-.706 0-1.411-.225-1.86-.578zm5.972-1.268v.031c.08 1.269 1.006 1.96 1.942 1.96.828 0 1.428-.226 2.024-.691v1.397c-.542.45-1.344.658-2.12.658-1.873 0-3.15-1.413-3.15-3.66 0-2.264 1.248-3.773 2.908-3.773 1.752 0 2.58 1.331 2.58 3.274v.804zm2.92-1.028c-.026-1.108-.488-1.719-1.358-1.719-.775 0-1.346.643-1.52 1.72z"/>
</svg>
