<svg xmlns="http://www.w3.org/2000/svg" viewBox="286.145 208.158 81.044 28.865" width="81.044" height="28.865">
  <rect width="81.038" height="28.865" x="286.145" y="208.158" fill="#f9f9f9" fill-rule="evenodd" stroke="#000" stroke-linecap="round" stroke-linejoin="round" stroke-width=".8" rx="3.599" ry="3.599"/>
  <g transform="matrix(.16617 0 0 .14025 294.382 191.218)">
    <path class="st0" d="m28.435 154.18-60.1 34.7v69.4l60.1 34.7 60-34.7v-69.4zm42.2 93.8-42.3 24.4-42.2-24.4v-48.8l42.3-24.4 42.2 24.4z" style="fill:#002d74"/>
    <linearGradient id="a" gradientUnits="userSpaceOnUse" x1="90.117" y1="1.087" x2="90.117" y2="70.488" gradientTransform="matrix(1 0 0 -1 -31.665 294.07)">
      <stop offset="0" style="stop-color:#002d74"/>
      <stop offset="1" style="stop-color:#002d74;stop-opacity:0"/>
    </linearGradient>
    <path class="st1" d="m28.435 292.98 60-34.7v-69.4l-60-34.7v20.6l42.2 24.4v48.9l-42.3 24.4v20.5z" style="fill:url(#a)"/>
    <linearGradient id="b" gradientUnits="userSpaceOnUse" x1="30.023" y1="139.89" x2="30.023" y2="70.488" gradientTransform="matrix(1 0 0 -1 -31.665 294.07)">
      <stop offset="0" style="stop-color:#002d74"/>
      <stop offset="1" style="stop-color:#002d74;stop-opacity:0"/>
    </linearGradient>
    <path style="fill:url(#b)" d="m28.335 154.18-60 34.7v69.4l60 34.7v-20.6l-42.2-24.4v-48.9l42.2-24.3z"/>
    <path class="st0" d="m56.435 239.78-28 16.2-28.1-16.2v-32.4l28.1-16.2 28 16.2-11.7 6.8-16.4-9.5-16.3 9.5v18.9l16.4 9.5 16.4-9.5z" style="fill:#002d74"/>
  </g>
  <text style="fill:#092d74;font-family:Arial,sans-serif;white-space:pre;font-size:17px" x="313.758" y="228.564" transform="matrix(.60989 0 0 .71808 119.944 62.574)">Crypto.com
</text>
</svg>
