<svg xmlns="http://www.w3.org/2000/svg" viewBox="0 0 25 25" width="25" height="25">
  <path fill="#1572B6" d="M3.675 22.29 1.711.264h21.578l-1.966 22.022-8.837 2.45z"/>
  <path fill="#33A9DC" d="m12.5 22.864 7.14-1.98 1.68-18.819H12.5z"/>
  <path fill="#fff" d="M12.5 10.045h3.575l.247-2.766H12.5V4.577h6.774l-.065.725-.664 7.444H12.5z"/>
  <path fill="#EBEBEB" d="m12.516 17.06-.012.004-3.008-.812-.192-2.154H6.592l.378 4.242 5.533 1.536.012-.004z"/>
  <path fill="#fff" d="m15.845 12.632-.325 3.618-3.013.813v2.811l5.538-1.535.041-.456.47-5.25z"/>
  <path fill="#EBEBEB" d="M12.509 4.577v2.701H5.984l-.054-.607-.123-1.37-.065-.725zm-.009 5.468v2.701H9.53l-.054-.607-.123-1.37-.064-.725z"/>
</svg>
