<svg xmlns="http://www.w3.org/2000/svg" width="28" height="27.6" viewBox="0 0 28 27.6">
  <path d="M0 0h28v27.6H0z" fill="#611FE2"/>
  <path d="M14.267 11.733h2.667V12l.4-.133q.428-.016.856-.013l.506.001.53.003.534.002q.654.002 1.307.007v.666H19.6V16.8h-.8v-4.267H18v.4l.259.058c.276.076.276.076.409.209.034.392.034.392 0 .8-.456.304-.624.296-1.158.283l-.402-.008-.307-.009-.133.4h-1.6v1.333h1.867v.666h-2.667z" fill="#6F29E7"/>
  <path d="M8.8 11.733c1.066 0 1.066 0 1.299.222l.151.32c.336.651.712 1.247 1.126 1.85.606.886.606.886.757 1.342l.133-3.6h.666v4.8c-.933 0-.933 0-1.147-.172l-.137-.243-.16-.271-.156-.29-.317-.549-.349-.609-.933-1.467-.133 3.733h-.8z" fill="#F5F1FD"/>
  <path d="m10.655 17.182.479.001.479-.001c.386.018.386.018.52.151q.015.538.008 1.075l-.002.307q-.002.376-.007.752h.4c.199.449.267.694.267 1.2H9.466l.267-1.2h.4l-.004-.461-.003-.596-.003-.305q0-.384.011-.771c.133-.133.133-.133.521-.151" fill="#5D2BE3"/>
  <path d="m4.747 23.054.596.004 1.057.008v3.466H4.267c-.169-.339-.151-.58-.151-.959v-.414l.001-.435-.001-.436v-.796c.029-.495.113-.424.631-.439" fill="#4D30DF"/>
  <path d="M14.267 11.866H16.8v.666h-1.734v1.333H16.8v.666c-.133.133-.133.133-.496.147l-.446-.004-.446-.003-.346-.004V16h1.867v.666h-2.667z" fill="#F6F3FD"/>
  <path d="M4.133 0h2.4L6.4 3.333c-.867.109-1.327.156-2.134 0-.17-.34-.148-.582-.147-.963l.001-.417.003-.437.002-.44z" fill="#7114E8"/>
  <path d="M22.133 17.2h1.333v.267h-.267c.115.935.375 1.595.914 2.37.153.297.153.297.02.83h-2.8c.147-1.025.147-1.025.475-1.434.442-.646.388-1.276.325-2.033" fill="#6434E4"/>
  <path d="M17.466 11.866h3.6v.666h-1.467V16.8h-.8v-4.267h-1.333z" fill="#F7F4FD"/>
  <path d="M10.325 5.709c.342.025.342.025.608.291-.034.283-.034.283-.133.666l-.141.575-.125.493 1.066-.133-.267-.4c.072-.605.072-.605.267-.8a13 13 0 0 1 .666 0l.267.666C11.9 7.85 11.9 7.85 11.6 8q-.467.008-.933 0l.267.4c.025.351.025.351 0 .666l-.133.133a24 24 0 0 1-.933-.133v-.8l.267-.133c.063-.314.063-.314.083-.675l.03-.372.02-.287-.4-.133a19 19 0 0 1 0-.8c.133-.133.133-.133.458-.158" fill="#7820E9"/>
  <path d="M21.067 5.733h.267v2l.8-.666.666.267 1.2-1.2.533.4-.133.4-.4-.267-1.2 1.2-.666-.267c-.522.468-.656.616-.8 1.333h3.2V9.2h-3.467z" fill="#7A25E9"/>
  <path d="m3.866 11.333.95-.05.295-.022c.506-.012.837.071 1.219.389.489.559.427 1.16.388 1.867l-.05 1.284h-2.8zm.267.267v3.067H6.4V12.4h-.8v-.8z" fill="#712CE7"/>
  <path d="m10.659 17.186 1.341.013V19.6h-.133v-2.134H10.4v2.533h1.467l.133-.267v.533H9.867l-.133.267h2.8v.133H9.466l.267-1.2h.4l-.004-.461-.003-.596-.003-.305q0-.384.011-.771c.133-.133.133-.133.525-.147" fill="#6536E4"/>
  <path d="m4.747 23.054.596.004 1.057.008v3.466H4.267c-.169-.339-.151-.58-.151-.959v-.414l.001-.435-.001-.436v-.796c.029-.495.113-.424.631-.439m-.346.279v2.933c1.095.193 1.095.193 1.734 0v-2.933z" fill="#583DE1"/>
  <path d="M4.133 0h2.4L6.4 3.333c-.867.109-1.327.156-2.134 0-.17-.34-.148-.582-.147-.963l.001-.417.003-.437.002-.44zM4.4.133v2.933c1.095.193 1.095.193 1.734 0V.133zm.666 2.533h.4l-.133.4-.267-.133z" fill="#7923E9"/>
  <path d="m0 17.333.666.133c.235.469.18.999.192 1.516l.018.349.006.337.01.308c-.092.289-.092.289-.892.822z" fill="#6432E4"/>
  <path d="m.666 6.933.175.25c.225.314.225.314.626.551l-.075.242c-.088.312-.088.312.075.691l-.259.116c-.296.128-.296.128-.409.417H0V7.067z" fill="#7924E9"/>
  <path d="M17.6 23.066c.538.249.81.485 1.051 1.017.15.45.15.45.15.717h-.4l-.092-.441c-.132-.493-.132-.493-.458-.75-.5-.185-.933-.282-1.45-.142-.533.382-.773.773-.884 1.417.099.532.22.752.617 1.117.417.179.417.179.8.267v.267c-.508.075-.661.004-1.092-.3-.517-.506-.622-.694-.692-1.417.016-.577.204-.908.584-1.35.561-.482 1.158-.51 1.867-.4" fill="#583BE1"/>
  <path d="M17.504-.097c.487.095.664.132.954.522.185.376.304.756.342 1.175h-.267c-.4-.767-.4-.767-.4-1.066-.552-.268-.989-.342-1.6-.267-.396.239-.724.513-.933.933-.053.846-.053.846.267 1.6.356.14.685.199 1.066.267v.267c-.813-.031-.813-.031-1.139-.306-.396-.469-.572-.844-.644-1.452.054-.545.123-.912.429-1.366.559-.405 1.261-.356 1.925-.306" fill="#7922E9"/>
  <path d="M21.734 19.867q.492-.011.983-.017l.282-.007c.245-.002.489.01.735.024.267.267.267.267.267.666h-2.267l-.133-.4z" fill="#5829E2"/>
  <path d="M22.533 17.466h.4l.049.263c.123.642.258 1.256.484 1.869h-1.467l.192-.317c.261-.606.305-1.164.342-1.817" fill="#5A26E2"/>
  <path d="M17.866 24c.192.426.192.426.267.8-.4-.133-.4-.133-.584-.409-.197-.292-.197-.292-.55-.317-.329.039-.329.039-.575.192-.256.432-.183.838-.158 1.333-.233-.203-.385-.368-.516-.65-.025-.412.149-.619.383-.95.585-.585 1.049-.392 1.734 0" fill="#583BE1"/>
  <path d="M17.466.533c.346.255.497.426.633.833l.034.234h-.4l-.184-.334-.216-.334c-.38-.076-.57-.054-.908.133-.256.432-.183.838-.158 1.333l-.4-.267c-.087-.58-.065-.841.276-1.325.489-.344.737-.371 1.324-.274" fill="#7922E9"/>
  <path d="M.533 18.267v1.867L0 20.401v-2c.267-.133.267-.133.533-.133" fill="#5A28E2"/>
  <path d="m0 7.467.8.133c.083.383.083.383.133.8-.267.267-.267.267-.617.283L0 8.667z" fill="#7015E8"/>
  <path d="M7.067 15.867q.335.057.666.133l.133.666q-.399.076-.8.133c-.133-.133-.133-.133-.15-.467.016-.333.016-.333.15-.466" fill="#F7F5FD"/>
  <path d="M27.6 11.733h.133v2.533l-.267-.533-.133-.133a9 9 0 0 1-.025-.642l-.006-.353c.032-.354.119-.569.297-.872" fill="#6F29E7"/>
  <path d="m16.8 24.267.666.267-.133.666-.533.133c-.267-.4-.267-.4-.225-.683.092-.25.092-.25.225-.383" fill="#563AE1"/>
  <path d="m16.667 1.2.666.133.133.4-.4.4-.533-.267z" fill="#7821E9"/>
  <path d="M15.066 12.533c.4.533.4.533.4 1.2h1.333v.133h-1.734z" fill="#7534E8"/>
  <path d="M4.667 12.8c.267.267.267.267.267.8l-.267.267-.4-.4c.25-.516.25-.516.4-.666" fill="#6F2AE7"/>
  <path d="M7.067 15.867c.276.058.276.058.533.133l-.4.267v.267l.4.267-.666-.133a13 13 0 0 1 0-.666z" fill="#D9CBF8"/>
  <path d="m5.733 12.8.533.4-.267.533h-.267z" fill="#6F2AE7"/>
</svg>
