<svg xmlns="http://www.w3.org/2000/svg" viewBox="0 0 300 300" width="300" height="300">
  <path d="M-1.498 1.644c92.4-.674 204.782-2.746 299.98-3.442.22 93.06 3.216 204.1 3.442 299.98-92.398.676-204.648 2.746-299.846 3.44-.22-93.06-3.35-204.098-3.576-299.978" fill="#FEFEFE" style="transform-origin:71.26px 65.67px" transform="rotate(.658 .001 -.001)"/>
  <path d="M108.902 80.68c12.068 7.782 20.32 17.87 25.376 31.314 1.242 6.72.854 13.654.87 20.494l-96 .702c2.214-24.998 6.262-34.044 24.15-49.482 11.322-8.27 32.746-7.52 45.604-3.028" fill="#FDFEFE" style="transform-origin:43.557px 52.416px" transform="rotate(.658)"/>
  <path d="M111.654 76.896c13.738 7.826 21.068 19.124 27.078 33.552 2.02 7.986 2.02 7.986 2.066 27.986l-101.998.744c4.212 30.22 4.212 30.22 21.612 50.562 12.794 7.664 27.346 6.65 41.634 4.102 11.692-3.242 18.468-9.058 24.838-19.306a190 190 0 0 0 7.958-18.058l4-.03c-1.188 12.164-4.694 23.044-13.662 31.646-16.774 13.124-33.532 15.152-54.234 12.85-11.854-3.028-19.694-8.35-26.918-18.178-12.086-20.712-15.584-45.092-9.458-68.454 7.062-18.326 16.3-31.248 34.398-39.58 14.536-4.65 28.82-4.084 42.686 2.164m-60.46 17.566c-10.038 12.222-12.444 23.106-12.408 38.716l95.998-.7c-.038-16.744-1-28.098-12.354-40.668-14.24-12.984-23.77-13.828-42.946-13.47-12.89 1.112-19.47 6.886-28.29 16.122" fill="#6E7880" style="transform-origin:43.101px 68.217px" transform="rotate(.658)"/>
  <path d="m152.644 75.65 6-.044c3.068 3.212 3.068 3.212 6.306 7.704l3.618 4.95 3.742 5.246q3.656 5.038 7.314 10.072l3.578 4.966c5.088 7 10.312 13.894 15.568 20.77 5.636-5.48 10.492-11.114 15.162-17.432l3.956-5.338 4.066-5.526 4.11-5.548c4.99-6.75 9.948-13.46 14.578-20.462l6-.044c-3.152 7.03-7.326 12.814-11.954 18.96l-4.792 6.372-5.178 6.828-2.79 3.674q-8.554 11.25-17.148 22.472c2.584 5.416 5.422 10.162 9.042 14.942l2.976 3.938 3.16 4.134 3.23 4.26a670 670 0 0 0 24.634 30.334c3.104 4.056 3.104 4.056 3.112 8.056-5.932-.578-7.832-1.752-11.89-6.234l-4.138-5.776c-1.55-2.124-3.1-4.25-4.694-6.442l-2.556-3.54c-5.212-7.152-10.594-14.176-15.95-21.222l-6.276-8.298-4.632-6.122c-8.674 8.268-15.774 17.328-22.936 26.918l-3.358 4.446c-5.194 6.902-10.228 13.828-15.02 21.016l-4.548 5.954-6 .044c3.262-7.458 7.982-13.588 12.954-19.97.864-1.13 1.732-2.26 2.626-3.424a1376 1376 0 0 1 14.086-18.026l2.778-3.536q2.644-3.366 5.336-6.69c4.968-6.352 6.08-8.286 6.06-16.674-2.364-4.1-2.364-4.1-5.724-8.052l-3.674-4.598-3.894-4.754-7.476-9.29-3.692-4.578a1030 1030 0 0 1-10.568-13.38l-2.982-3.832c-2.112-3.224-2.112-3.224-2.122-7.224" fill="#505C67" style="transform-origin:99.895px 68.795px" transform="rotate(.658)"/>
  <path d="m34.422 137.212 2-.014 1.044 5.554c4.222 21.092 7.224 35.432 25.278 47.996 11.508 6.736 26.194 5.326 38.968 3.122 11.658-3.318 18.428-9.078 24.8-19.33a190 190 0 0 0 7.956-18.058l4-.028c-1.186 12.164-4.694 23.044-13.66 31.646-16.774 13.122-33.534 15.15-54.234 12.85-14.254-3.644-22.184-10.84-29.744-23.222-5.04-9.864-6.83-16.908-6.628-28.14l.092-7.038z" fill="#495560" style="transform-origin:43.182px 84.509px" transform="rotate(.658)"/>
  <path d="M126.926 96.58c4.878 1.886 7.476 3.008 10.11 7.622l1.42 4.418 1.478 4.312c1.452 7.716 1.068 15.686 1.086 23.546l-101.998.746-.004-2 97.998-.716c-3.272-14.704-3.272-14.704-7.318-29.074l-1.592-5.12z" fill="#45525D" style="transform-origin:45px 58.295px" transform="rotate(.658)"/>
  <path d="m134.356 156.84 4-.03c-1.188 12.168-4.738 22.894-13.52 31.646-8.386 6.738-15.904 10.388-26.376 12.646l-2.014-5.984 3.512-.846c12.542-3.55 19.53-8.258 26.44-19.374a190 190 0 0 0 7.958-18.058" fill="#58636D" style="transform-origin:58.704px 89.421px" transform="rotate(.658)"/>
  <path d="M95.238 72.976c12.558 1.478 23.882 6.55 32.038 16.266l4.014 5.47-5.996 2.044c-2.968-2.704-2.968-2.704-6.392-6.58-11.602-10.86-26.492-10.278-41.65-11.07l-.004-2 17.994-2.13z" fill="#54606A" style="transform-origin:52.133px 42.359px" transform="rotate(.658)"/>
  <path d="M48.958 92.596c.014 6 .014 6-2.6 10.894-4.71 10.022-6.876 20.434-9.302 31.194l-2 .014c-1.526-15.548 1.21-26.918 9.906-40.072z" fill="#4A5661" style="transform-origin:20.907px 56.575px" transform="rotate(.658)"/>
  <path d="m241.18 75.412 6-.044c-3.228 7.194-7.556 13.236-12.204 19.59l-4.378 6-3.348 4.556-4.004-1.972c3.072-6.598 6.762-12.542 10.83-18.578l3.606-5.432c1.152-1.362 2.306-2.72 3.498-4.12" fill="#56616B" style="transform-origin:117.608px 45.456px" transform="rotate(.658)"/>
  <path d="m134.858 117.06 6.006 1.956.042 18-8.006-1.94 4-.03z" fill="#4E5A64" style="transform-origin:68.441px 63.509px" transform="rotate(.658)"/>
  <path d="m95.332 72.826 10.004 1.928.014 6-28.004-1.796-.006-2 17.996-2.132z" fill="#7C858D" style="transform-origin:45.67px 38.3px" transform="rotate(.658)"/>
  <path d="m194.792 129.342 10-.072.022 10-3.994 2.03-6.01-3.958z" fill="#404C58" style="transform-origin:99.903px 67.795px" transform="rotate(.658)"/>
  <path d="m55.218 82.694 6.006 1.956a288 288 0 0 1-9.976 10.072l-4 .03c2.29-4.954 4.074-8.126 7.97-12.058" fill="#5E6973" style="transform-origin:27.116px 44.131px" transform="rotate(.658)"/>
  <path d="M75.306 76.696c-2.54 5.118-4.794 5.896-9.982 8.072l-6 .044c1.986-6.014 1.986-6.014 5.73-8.542 4.246-1.53 4.246-1.53 10.252.426" fill="#535E69" style="transform-origin:33.656px 39.798px" transform="rotate(.658)"/>
  <path d="M36.492 158.684c6.194 5.014 7.842 10.392 10.042 17.928l-6 .044c-3.014-6.72-4.024-10.382-4.042-17.972" fill="#45515D" style="transform-origin:20.756px 83.575px" transform="rotate(.658)"/>
  <path d="m134.518 157.036 4-.03c-1.724 11.514-1.724 11.514-3.964 16.03l-4 .03c1.724-11.514 1.724-11.514 3.964-16.03" fill="#4B5762" style="transform-origin:67.268px 82.499px" transform="rotate(.658)"/>
  <path d="m180.546 155.216 3.998-.03c-2.482 7.326-3.318 9.588-9.966 14.074-.016-7.04 1.386-8.888 5.968-14.044" fill="#4A5661" style="transform-origin:89.781px 81.204px" transform="rotate(.658)"/>
</svg>
