<svg viewBox="0 -11.786 75 75" fill="none" xmlns="http://www.w3.org/2000/svg" width="75" height="75">
  <g stroke-width="0"/>
  <g stroke-linecap="round" stroke-linejoin="round"/>
  <path fill="#fff" stroke="#D9D9D9" d="M6.429.536h62.142a5.893 5.893 0 0 1 5.893 5.893V45a5.893 5.893 0 0 1-5.893 5.893H6.429A5.893 5.893 0 0 1 .536 45V6.429A5.893 5.893 0 0 1 6.429.536z" stroke-width="1.071"/>
  <path fill-rule="evenodd" clip-rule="evenodd" d="M35.421 33.767v-6.474h3.342c1.368 0 2.524-.459 3.466-1.364l.226-.228a4.66 4.66 0 0 0-.225-6.525 4.77 4.77 0 0 0-3.467-1.389h-5.364v15.979zm0-8.435V19.75h3.392c.729 0 1.42.281 1.935.791 1.093 1.07 1.117 2.854.063 3.962a2.63 2.63 0 0 1-1.998.828zm16.468-1.645c-.868-.802-2.047-1.211-3.543-1.211-1.921 0-3.365.714-4.32 2.129l1.783 1.134q.98-1.453 2.675-1.453c.717 0 1.407.268 1.947.752a2.4 2.4 0 0 1 .829 1.821v.471c-.779-.433-1.758-.662-2.965-.662-1.406 0-2.537.332-3.378 1.007s-1.269 1.568-1.269 2.701a3.4 3.4 0 0 0 1.194 2.676c.791.714 1.796 1.071 2.976 1.071 1.394 0 2.5-.626 3.341-1.875h.088v1.517h1.935v-6.741c0-1.414-.427-2.535-1.294-3.339m-5.489 8.067a1.66 1.66 0 0 1-.666-1.338c0-.599.276-1.096.816-1.491.553-.394 1.244-.598 2.06-.598 1.131-.013 2.01.242 2.639.751 0 .867-.34 1.618-1.005 2.255a3.2 3.2 0 0 1-2.275.956 2.46 2.46 0 0 1-1.57-.536m11.13 6.82 6.758-15.739h-2.197l-3.129 7.85h-.038l-3.204-7.85h-2.196l4.434 10.232-2.513 5.507z" fill="#3C4043"/>
  <path d="M28.44 25.892c0-.625-.05-1.249-.15-1.861h-8.529v3.53h4.886a4.25 4.25 0 0 1-1.81 2.791v2.293h2.914c1.709-1.592 2.688-3.95 2.688-6.753" fill="#4285F4"/>
  <path d="M19.761 34.863c2.436 0 4.497-.815 5.991-2.218l-2.914-2.293c-.816.56-1.859.879-3.077.879-2.361 0-4.359-1.618-5.074-3.784h-3.002v2.37c1.532 3.096 4.661 5.046 8.076 5.046" fill="#34A853"/>
  <path d="M14.687 27.447a5.6 5.6 0 0 1 0-3.517v-2.357h-3.002a9.21 9.21 0 0 0 0 8.232z" fill="#FBBC04"/>
  <path d="M19.761 20.145a4.82 4.82 0 0 1 3.467 1.376l2.587-2.625a8.66 8.66 0 0 0-6.054-2.383c-3.418 0-6.545 1.963-8.077 5.059l3.002 2.37c.716-2.179 2.713-3.797 5.074-3.797" fill="#EA4335"/>
</svg>
