<svg fill="#F7DF1E" viewBox="0 0 25 25" xmlns="http://www.w3.org/2000/svg" width="25" height="25">
  <path d="M0 0h25v25H0zm22.952 19.038c-.182-1.141-.925-2.099-3.128-2.993-.767-.359-1.619-.609-1.872-1.188-.095-.344-.109-.531-.048-.734.156-.673.953-.875 1.578-.688.406.125.781.438 1.017.938 1.077-.704 1.077-.704 1.828-1.172-.281-.438-.421-.626-.61-.813-.656-.734-1.53-1.109-2.952-1.077l-.734.093c-.704.172-1.375.547-1.781 1.047-1.188 1.345-.845 3.689.593 4.657 1.422 1.063 3.501 1.296 3.767 2.297.25 1.219-.906 1.609-2.048 1.469-.845-.188-1.313-.61-1.828-1.392l-1.906 1.095c.219.5.469.718.844 1.155 1.813 1.829 6.344 1.735 7.157-1.046.03-.094.25-.734.077-1.719zm-9.357-7.547h-2.342c0 2.019-.009 4.025-.009 6.047 0 1.283.066 2.461-.144 2.824-.344.718-1.229.626-1.631.5-.413-.204-.622-.485-.865-.891-.066-.109-.115-.204-.132-.204l-1.901 1.172c.318.656.781 1.221 1.379 1.58.891.531 2.088.703 3.341.422.816-.235 1.519-.72 1.886-1.47.531-.969.419-2.156.414-3.485.013-2.14 0-4.28 0-6.436z"/>
</svg>
