<svg viewBox="0 -13.462 75 75" xml:space="preserve" xmlns="http://www.w3.org/2000/svg" width="75" height="75">
  <g stroke-width="0"/>
  <g stroke-linecap="round" stroke-linejoin="round"/>
  <path d="M3.846 0h67.308A3.846 3.846 0 0 1 75 3.846v40.385a3.846 3.846 0 0 1-3.846 3.846H3.846A3.846 3.846 0 0 1 0 44.231V3.846A3.846 3.846 0 0 1 3.846 0" fill="#16366F"/>
  <path d="M43.174 24.038c0 9.533-7.728 17.26-17.261 17.26S8.654 33.571 8.654 24.038c0-9.532 7.727-17.26 17.26-17.26 9.532 0 17.261 7.728 17.261 17.26" fill="#D9222A"/>
  <path d="M49.086 6.778c-4.46 0-8.523 1.692-11.587 4.468a17.5 17.5 0 0 0-1.743 1.827h3.487a17.5 17.5 0 0 1 1.316 1.828H34.44a17 17 0 0 0-.994 1.828h8.107a17 17 0 0 1 .731 1.827h-9.569a17 17 0 0 0-.502 1.828h10.571a17.4 17.4 0 0 1 .389 3.654c0 1.917-.313 3.761-.89 5.483h-9.568a17 17 0 0 0 .73 1.828h8.107a17 17 0 0 1-.995 1.828h-6.118a17.5 17.5 0 0 0 1.316 1.827h3.486a17 17 0 0 1-1.743 1.828 17.2 17.2 0 0 0 11.587 4.467c9.533 0 17.261-7.727 17.261-17.26 0-9.532-7.728-17.26-17.261-17.26" fill="#EE9F2D"/>
  <path d="M64.046 33.66a.557.557 0 1 1 1.114 0 .56.56 0 0 1-.557.558.56.56 0 0 1-.557-.558m.557.424a.424.424 0 0 0 .424-.424.423.423 0 0 0-.423-.423.423.423 0 0 0-.423.422v.001a.423.423 0 0 0 .423.424zm-.075-.179h-.114v-.49h.207c.043 0 .087 0 .125.024.04.027.062.074.062.123a.13.13 0 0 1-.085.126l.09.216h-.126l-.075-.194h-.084zm0-.278h.063c.024 0 .048.002.07-.01a.07.07 0 0 0 .028-.056.06.06 0 0 0-.028-.05c-.02-.013-.052-.01-.073-.01h-.061zm-42.644-7.698a3 3 0 0 0-.418-.029c-1.062 0-1.6.364-1.6 1.083 0 .443.263.726.672.726.763 0 1.313-.727 1.346-1.78m1.363 3.173h-1.553l.036-.738c-.474.583-1.105.861-1.964.861-1.016 0-1.712-.793-1.712-1.945 0-1.733 1.211-2.744 3.29-2.744.212 0 .485.019.764.055.058-.235.073-.335.073-.462 0-.472-.327-.648-1.202-.648a6.2 6.2 0 0 0-1.983.321l.26-1.602c.934-.274 1.55-.377 2.243-.377 1.609 0 2.461.722 2.46 2.088.003.366-.057.817-.152 1.411-.163 1.032-.512 3.242-.559 3.781m-5.977 0h-1.874l1.073-6.73-2.397 6.73h-1.277l-.158-6.692-1.128 6.692H9.756l1.465-8.755h2.694l.163 4.901 1.643-4.901h2.997zm34.133-3.173a3 3 0 0 0-.417-.029c-1.062 0-1.599.364-1.599 1.083 0 .443.262.726.671.726.763 0 1.314-.727 1.345-1.78m1.364 3.173h-1.552l.035-.738c-.474.583-1.106.861-1.963.861-1.016 0-1.712-.793-1.712-1.945 0-1.733 1.21-2.744 3.29-2.744.212 0 .484.019.763.055.058-.235.073-.335.073-.462 0-.472-.326-.648-1.202-.648a6.2 6.2 0 0 0-1.984.321l.26-1.602c.934-.274 1.549-.377 2.242-.377 1.61 0 2.462.722 2.46 2.088.003.366-.057.817-.152 1.411-.162 1.032-.512 3.242-.559 3.781m-21.191-.108c-.513.162-.913.231-1.346.231-.958 0-1.481-.55-1.481-1.564-.014-.314.138-1.142.257-1.898.108-.665.813-4.859.813-4.859h1.863l-.218 1.078h1.125l-.254 1.711h-1.129c-.216 1.354-.524 3.041-.528 3.264 0 .367.196.527.641.527.214 0 .379-.022.505-.067zm5.711-.058a6.4 6.4 0 0 1-1.911.288c-2.085-.002-3.172-1.091-3.172-3.176 0-2.434 1.383-4.226 3.26-4.226 1.536 0 2.516 1.003 2.516 2.577 0 .522-.067 1.032-.23 1.751h-3.709c-.125 1.033.536 1.463 1.619 1.463.667 0 1.268-.138 1.937-.448zm-1.047-4.221c.01-.148.197-1.271-.867-1.271-.593 0-1.018.452-1.19 1.271zm-11.867-.482c0 .901.437 1.522 1.427 1.988.759.357.876.462.876.786 0 .444-.335.644-1.076.644a5.3 5.3 0 0 1-1.679-.281l-.258 1.644c.426.093.806.179 1.95.211 1.977 0 2.89-.753 2.89-2.38 0-.978-.382-1.553-1.321-1.984-.786-.361-.876-.441-.876-.774 0-.385.311-.581.917-.581.368 0 .87.039 1.346.107l.267-1.651a13 13 0 0 0-1.649-.139c-2.096 0-2.822 1.095-2.815 2.41M46.4 22.012c.52 0 1.006.137 1.674.473l.306-1.9c-.274-.108-1.241-.74-2.059-.74-1.254 0-2.314.622-3.06 1.649-1.088-.36-1.535.368-2.083 1.093l-.487.113a3.6 3.6 0 0 0 .059-.716h-1.721c-.235 2.204-.652 4.436-.978 6.642l-.085.478h1.875c.313-2.033.484-3.335.589-4.216l.706-.393c.105-.392.435-.525 1.098-.509a8 8 0 0 0-.133 1.46c0 2.329 1.257 3.78 3.274 3.78.52 0 .966-.068 1.656-.255l.33-1.996c-.621.306-1.131.45-1.592.45-1.089 0-1.748-.804-1.748-2.133 0-1.928.98-3.28 2.379-3.28"/>
  <path d="M17.809 28.581h-1.874l1.074-6.73-2.397 6.73h-1.277l-.158-6.691-1.128 6.691h-1.754l1.465-8.754h2.694l.076 5.419 1.818-5.419h2.91z" fill="#fff"/>
  <path d="m62.262 20.346-.415 2.53c-.513-.674-1.063-1.162-1.79-1.162-.946 0-1.806.717-2.369 1.772a16 16 0 0 1-1.596-.439v.006c.063-.59.088-.95.083-1.072h-1.721c-.234 2.204-.651 4.436-.977 6.642l-.086.478h1.874q.378-2.467.59-4.091c.64-.579.961-1.083 1.608-1.05a6.1 6.1 0 0 0-.454 2.309c0 1.78.901 2.954 2.263 2.954.687 0 1.213-.237 1.728-.786l-.088.662h1.771l1.427-8.754zm-2.343 7.11c-.638 0-.96-.472-.96-1.404 0-1.399.603-2.392 1.453-2.392.644 0 .992.491.992 1.395 0 1.412-.612 2.4-1.485 2.4"/>
  <path d="M22.422 25.41a3 3 0 0 0-.418-.029c-1.062 0-1.599.364-1.599 1.083 0 .443.263.726.671.726.764 0 1.314-.727 1.346-1.78m1.363 3.172h-1.553l.035-.737c-.473.582-1.106.861-1.964.861-1.016 0-1.712-.793-1.712-1.945 0-1.734 1.211-2.744 3.29-2.744.212 0 .485.019.763.055.058-.235.073-.335.073-.462 0-.472-.326-.647-1.202-.647a6.3 6.3 0 0 0-1.984.319l.26-1.6c.934-.275 1.55-.378 2.242-.378 1.609 0 2.462.723 2.46 2.087.003.367-.058.818-.152 1.411-.162 1.031-.512 3.243-.559 3.78m25.133-8.518-.307 1.901c-.668-.336-1.154-.473-1.674-.473-1.399 0-2.38 1.352-2.38 3.28 0 1.329.659 2.133 1.748 2.133.462 0 .971-.143 1.592-.45l-.329 1.995c-.691.188-1.136.257-1.656.257-2.017 0-3.274-1.45-3.274-3.78 0-3.13 1.736-5.317 4.22-5.317.818 0 1.785.347 2.06.455m3.023 5.347a3 3 0 0 0-.418-.029c-1.062 0-1.599.364-1.599 1.083 0 .443.262.726.672.726.763 0 1.314-.727 1.346-1.78m1.363 3.172h-1.553l.036-.737c-.473.582-1.106.861-1.963.861-1.016 0-1.712-.793-1.712-1.945 0-1.734 1.211-2.744 3.29-2.744.213 0 .485.019.764.055.058-.235.073-.335.073-.462 0-.472-.326-.647-1.202-.647a6.3 6.3 0 0 0-1.984.319l.26-1.6c.934-.275 1.55-.378 2.242-.378 1.61 0 2.462.723 2.46 2.087.003.367-.057.818-.152 1.411-.162 1.031-.512 3.243-.559 3.78m-21.191-.108c-.513.162-.913.232-1.346.232-.958 0-1.481-.551-1.481-1.564-.013-.315.138-1.142.257-1.898.108-.666.812-4.859.812-4.859h1.862l-.217 1.078h.956l-.254 1.71h-.959c-.216 1.355-.525 3.04-.528 3.264 0 .368.196.527.641.527q.318.001.505-.067zm5.711-.057a6.4 6.4 0 0 1-1.912.288c-2.085-.002-3.172-1.091-3.172-3.176 0-2.435 1.383-4.226 3.26-4.226 1.536 0 2.516 1.003 2.516 2.577 0 .522-.067 1.032-.229 1.751h-3.709c-.126 1.033.535 1.464 1.619 1.464.666 0 1.268-.138 1.936-.45zm-1.047-4.222c.011-.148.198-1.271-.867-1.271-.593 0-1.017.454-1.19 1.271zm-11.867-.481c0 .9.437 1.521 1.427 1.988.759.357.876.463.876.786 0 .444-.335.644-1.076.644a5.3 5.3 0 0 1-1.68-.281l-.257 1.644c.425.093.805.178 1.949.211 1.978 0 2.89-.753 2.89-2.379 0-.979-.382-1.553-1.321-1.984-.785-.361-.876-.441-.876-.774 0-.385.312-.583.917-.583.367 0 .87.04 1.347.108l.266-1.652a13 13 0 0 0-1.649-.139c-2.097 0-2.822 1.094-2.816 2.41m38.313 4.868h-1.773l.088-.663c-.514.55-1.041.787-1.728.787-1.362 0-2.263-1.174-2.263-2.954 0-2.368 1.396-4.365 3.049-4.365.727 0 1.277.297 1.789.971l.416-2.53h1.848zm-2.764-1.645c.873 0 1.486-.989 1.486-2.399 0-.904-.349-1.395-.993-1.395-.85 0-1.453.992-1.453 2.392 0 .931.323 1.403.961 1.403m-5.466-5.474c-.235 2.204-.651 4.436-.977 6.641l-.086.478H55.8c.67-4.353.833-5.204 1.883-5.097.168-.891.479-1.671.711-2.065-.785-.163-1.223.28-1.797 1.123.045-.364.128-.718.112-1.079zm-15.425 0c-.235 2.204-.652 4.436-.978 6.641l-.085.478h1.875c.669-4.353.831-5.204 1.882-5.097.168-.891.48-1.671.712-2.065-.784-.163-1.223.28-1.796 1.123.045-.364.127-.718.112-1.079zm24.478 6.562c0-.309.25-.558.557-.558a.557.557 0 0 1 .557.556v.001a.56.56 0 0 1-.557.557.56.56 0 0 1-.557-.557m.557.423a.423.423 0 0 0 .423-.423.423.423 0 0 0-.423-.424.424.424 0 0 0-.424.424.424.424 0 0 0 .424.423m-.075-.18h-.114v-.489h.207c.043 0 .087.001.125.024.04.027.063.074.063.123a.14.14 0 0 1-.085.127l.09.215h-.127l-.075-.193h-.084zm0-.277h.063c.024 0 .049.002.07-.01a.07.07 0 0 0 .028-.056.06.06 0 0 0-.028-.05c-.02-.011-.052-.008-.073-.008h-.06z" fill="#fff"/>
</svg>
