<svg xmlns="http://www.w3.org/2000/svg" viewBox="168.284 244.508 75 50" width="75" height="50">
  <g transform="translate(245.94 -68.866)">
    <rect width="75" height="50" x="-77.655" y="313.374" fill="#f9f9f9" fill-rule="evenodd" stroke="#000" stroke-linecap="round" stroke-linejoin="round" stroke-width=".8" rx="3.599" ry="3.599"/>
    <g fill="#005bac" font-family="Segoe WP Black" font-size="4" font-weight="400" letter-spacing="0" style="line-height:125%" word-spacing="0">
      <path d="M-57.956 335.807a5.3 5.3 0 0 1-.863 1.58 5.8 5.8 0 0 1-1.366 1.245 6.7 6.7 0 0 1-1.777.813 7.4 7.4 0 0 1-2.106.29h-1.037l-1.231 3.622h-3.394l3.829-11.266h4.62q1.107 0 1.893.196.786.197 1.22.64.434.445.497 1.152.061.707-.285 1.728m-3.63.118q.135-.4.1-.668a.7.7 0 0 0-.196-.428.9.9 0 0 0-.424-.232 2.3 2.3 0 0 0-.585-.07h-.644l-.945 2.78h.762q.408 0 .722-.101c.392-.122.727-.38.946-.727q.162-.255.263-.554zm6.571 7.432.417-1.225h-.032q-.604.667-1.34 1.045a3.45 3.45 0 0 1-1.594.377q-.613 0-1.003-.193a1.3 1.3 0 0 1-.578-.53 1.56 1.56 0 0 1-.184-.79q.005-.45.18-.97a4.5 4.5 0 0 1 .418-.88c.192-.309.433-.585.714-.817a4.3 4.3 0 0 1 1.11-.656q.665-.279 1.608-.397l2.084-.26a.64.64 0 0 0 .027-.368.55.55 0 0 0-.175-.283.9.9 0 0 0-.35-.18 1.8 1.8 0 0 0-.502-.064q-.4 0-.82.067t-.822.177a9 9 0 0 0-.776.247q-.372.138-.695.28l.74-2.177q.331-.126.777-.244.445-.117.926-.204t.956-.141q.436-.052.875-.055 1.1 0 1.764.24.665.239.96.714.293.476.248 1.187t-.368 1.661l-1.508 4.44zm.068-3.527a1.8 1.8 0 0 0-.704.255 1.01 1.01 0 0 0-.462.805.5.5 0 0 0 .055.244q.057.11.187.177c.11.049.23.072.35.066q.252 0 .501-.098.25-.098.47-.283a2.3 2.3 0 0 0 .684-1.017l.103-.306zm10.045 3.755q-.48.691-1.026 1.332a8 8 0 0 1-1.191 1.135q-.645.495-1.4.79a4.5 4.5 0 0 1-1.66.294 7 7 0 0 1-.881-.067 5 5 0 0 1-.512-.098 3 3 0 0 1-.477-.157l.857-2.522q.106.103.239.165.144.071.307.126.31.105.638.11c.286.003.568-.059.827-.18.264-.13.492-.321.665-.559l.473-.628-.64-8.014h3.701l-.344 3.881q-.014.181-.033.385-.036.389-.094.774a3 3 0 0 1-.063.303h.03q.134-.276.347-.649.213-.372.467-.797l2.29-3.897h3.253z" font-style="oblique" font-weight="800" style="text-align:start;line-height:125%" transform="matrix(.88548 0 0 1.72672 5.464 -245.114)"/>
      <path fill="#0097d3" d="M-29.138 335.807a5.3 5.3 0 0 1-.863 1.58 5.8 5.8 0 0 1-1.366 1.245 6.7 6.7 0 0 1-1.777.813 7.4 7.4 0 0 1-2.106.29h-1.037l-1.231 3.622h-3.394l3.829-11.266h4.62q1.107 0 1.893.196c.786.196.93.345 1.22.64q.434.445.497 1.152.062.707-.285 1.728m-3.63.118q.136-.4.1-.668a.7.7 0 0 0-.196-.428.9.9 0 0 0-.424-.232 2.3 2.3 0 0 0-.584-.07h-.645l-.945 2.78h.762q.408 0 .722-.101a1.72 1.72 0 0 0 .946-.727q.162-.255.263-.554zm6.571 7.432.417-1.225h-.032q-.604.667-1.34 1.045a3.45 3.45 0 0 1-1.594.377q-.613 0-1.003-.193a1.3 1.3 0 0 1-.578-.53 1.57 1.57 0 0 1-.184-.79q.005-.45.18-.97a4.5 4.5 0 0 1 .418-.88 3.4 3.4 0 0 1 .714-.817 4.3 4.3 0 0 1 1.11-.656q.665-.279 1.608-.397l2.084-.26a.65.65 0 0 0 .027-.368.55.55 0 0 0-.174-.283.9.9 0 0 0-.352-.18 1.8 1.8 0 0 0-.5-.064q-.402 0-.821.067-.42.067-.822.177a9 9 0 0 0-.776.247q-.372.138-.695.28l.74-2.177q.332-.126.777-.244t.926-.204q.481-.087.956-.141a8 8 0 0 1 .875-.055q1.1 0 1.764.24.665.238.96.714t.248 1.187q-.044.711-.368 1.661l-1.508 4.44zm.068-3.527a1.8 1.8 0 0 0-.703.255 1.01 1.01 0 0 0-.463.805.5.5 0 0 0 .055.244q.057.11.187.177a.8.8 0 0 0 .35.066q.252 0 .502-.098.249-.098.469-.283a2.3 2.3 0 0 0 .684-1.017l.104-.306zm4.49 3.527 4.047-11.91h3.347l-4.048 11.91z" style="line-height:113%" transform="matrix(.88548 0 0 1.72672 5.464 -245.114)"/>
    </g>
    <path fill="#1565C0" d="M-65.483 332.066v.003c.05-.282.22-.481.4-.482h5.558c.007 0 .014-.005.021-.005-.118-2.991-1.772-4.379-3.227-4.379h-5.562c-.19.005-.35.206-.39.487v-.001l-2.43 16.929c-.01.04-.01.079-.01.122 0 .346.17.62.41.62h3.33z"/>
    <path fill="#039BE5" d="M-59.504 331.582c.022.606-.009 1.212-.095 1.804-.528 3.754-2.433 5.708-4.797 5.708h-1.787c-.15-.011-.3.123-.36.338l-.72 5.039-.12.894-.52 3.629v.001c0 .041-.02.078-.02.122 0 .346.19.626.41.626h3.028l.007-.006c.191-.005.356-.212.39-.493l.007-.009.747-5.269s.055-.502.404-.502h1.726c2.357 0 4.287-1.945 4.816-5.699.594-4.233-1.394-6.165-3.116-6.181"/>
    <path fill="#283593" d="M-65.083 331.587c-.19-.002-.35.199-.4.482v-.003l-1.06 7.367c.06-.215.21-.35.36-.339h1.753c2.364 0 4.303-1.953 4.831-5.707.086-.591.117-1.198.095-1.804-.007-.001-.015.004-.021.004z"/>
  </g>
</svg>
