<svg viewBox="0 0 25 25" xmlns="http://www.w3.org/2000/svg" width="25" height="25">
  <path fill="#f37036" d="M22.093 5.091C18.002-.207 10.389-1.186 5.09 2.907-.208 6.999-1.185 14.612 2.907 19.91s11.706 6.274 17.004 2.181c5.296-4.092 6.273-11.703 2.182-17m0 0"/>
  <path fill="#fff" d="M17.789 4.72a1.96 1.96 0 0 0-1.129.474 1.96 1.96 0 0 0-.301 2.63 1.96 1.96 0 0 0 2.593.53l.03.03a2 2 0 0 0 .384-.283 2.02 2.02 0 0 0-.03-2.807l-1.727 1.717-.03-.03 1.727-1.717a1.96 1.96 0 0 0-1.517-.543zm-2.275 2.809c-.828-.001-2.18.937-5.482 4.239l.016.017c-.018-.006-.036-.007-.036-.007L8.769 13.01a.202.202 0 0 0 .182.344l2.132-.455a.06.06 0 0 0 .018-.033l.047.049-.727.721h-.035l-4.314 4.348 1.384 1.333a.24.24 0 0 0 .288.029.26.26 0 0 0 .126-.265l-.202-.879a.1.1 0 0 1 0-.121 23 23 0 0 0 5.222-3.434l-.886-.886.017-.003-.525-.525.034-.034.036.036-.018.018 1.394 1.424v-.001c2.672-2.53 4.568-4.564 4.075-5.933a.75.75 0 0 0-.216-.431v.001a1 1 0 0 0-.094-.06l-.048-.052-.013.013a1 1 0 0 0-.114-.057l.056-.057c-.351-.313-.641-.571-1.074-.572zM6.043 18.01l-1.01 1.01v.001a.2.2 0 0 0-.089.22.2.2 0 0 0 .18.154l2.475.171z"/>
  <path fill="#f37036" d="M17.959 4.553a2.16 2.16 0 0 0-1.515.619 2.15 2.15 0 0 0-.467 2.274c-.926-.396-2.179.295-6.075 4.191l-.007.018-.023.012L8.64 12.91a.385.385 0 0 0-.071.454.39.39 0 0 0 .333.192l.061-.04 1.645-.351-.787.794-.011.032-3.857 3.867a.2.2 0 0 0-.037.046l-.993.994a.39.39 0 0 0-.081.399.39.39 0 0 0 .323.247l2.464.172a.2.2 0 0 0 .102-.081.17.17 0 0 0 0-.202l-.005-.005a.4.4 0 0 0 .138-.113.44.44 0 0 0 .079-.366l-.192-.818a24.8 24.8 0 0 0 5.143-3.293.2.2 0 0 0 .048.02.2.2 0 0 0 .131-.06c2.646-2.506 4.202-4.223 4.202-5.586a1.6 1.6 0 0 0-.084-.557 2.2 2.2 0 0 0 .751.162l-.003.001a2.2 2.2 0 0 0 1.012-.283h.001a.16.16 0 0 0 .121-.011 1.8 1.8 0 0 0 .404-.323 2.12 2.12 0 0 0 .636-1.515 2.12 2.12 0 0 0-.636-1.515l-.023-.018a2.16 2.16 0 0 0-1.495-.601zm-.017.346a1.8 1.8 0 0 1 1.091.374l-1.576 1.585-.015.019a.16.16 0 0 0-.047.107.16.16 0 0 0 .061.127l1.191 1.191a1.77 1.77 0 0 1-1.959-.374 1.78 1.78 0 0 1-.381-1.932 1.77 1.77 0 0 1 1.633-1.099m1.391.67a1.73 1.73 0 0 1 .397 1.108 1.8 1.8 0 0 1-.525 1.263 2 2 0 0 1-.214.175l-.96-.945-.188-.188.052-.052 1.44-1.359zm-.071.819a.15.15 0 0 0-.107.006.14.14 0 0 0-.07.083.14.14 0 0 0 .01.109.44.44 0 0 1-.05.455.13.13 0 0 0-.038.095q.002.055.038.096a.1.1 0 0 0 .081 0 .13.13 0 0 0 .131-.04.7.7 0 0 0 .091-.738v.001a.15.15 0 0 0-.085-.067m-3.765 1.315a1.1 1.1 0 0 1 .646.239.93.93 0 0 0-.524.262l-4.454 4.435-.874-.874c2.31-2.299 3.723-3.5 4.601-3.894a1.1 1.1 0 0 1 .605-.168m.774.578a.57.57 0 0 1 .399.165.55.55 0 0 1 .172.414.56.56 0 0 1-.192.404l-4.736 4.122-.511-.511 4.47-4.43a.57.57 0 0 1 .399-.165zm.585 1.308c-.33 1.309-2.079 3.083-3.904 4.806l-.738-.737zm-6.822 2.434.054.053.686.686-1.881.402zm1.131 1.141.228.233.004.016.015.002.048.05.16.164-1.052.129zm.755.796.699.698a24.8 24.8 0 0 1-5.05 3.253.28.28 0 0 0-.152.323l.202.879a.06.06 0 0 1 0 .071.06.06 0 0 1-.081 0L6.345 17.98l3.675-3.727zm-5.846 4.285.17.159.877.877-1.956-.127z"/>
</svg>
