<svg xmlns="http://www.w3.org/2000/svg" width="25" height="25" viewBox="0 0 12 12">
  <path fill="#cfd8dc" d="M5.771 2.819c-.408-.612-.496-1.431-.516-1.767-1.037.224-2.067.626-2.008.923.007.037.054.082.133.126l-.122.218q-.223-.124-.256-.295c-.067-.335.313-.638 1.161-.927a11 11 0 0 1 1.188-.32L5.5.747V.9c0 .011.006 1.072.479 1.781zm.417 7.931h-.063c-2.048 0-4.327-.643-4.596-1.72-.164-.657.373-1.384 1.554-2.1l.13.213c-1.062.645-1.574 1.293-1.441 1.826.234.934 2.394 1.517 4.288 1.53.225-.337 1.435-2.315.745-4.968l.242-.063c.787 3.023-.804 5.209-.821 5.231z"/>
  <path fill="#cfd8dc" d="M2.483 9.826a1 1 0 0 1-.212-.018.124.124 0 0 1-.058-.21c.018-.018 1.799-1.802 2.04-3.244l.246.041C4.292 7.636 3.07 9.051 2.585 9.572c.485-.028 1.709-.255 4.059-1.57C4.81 7.801 4.52 6.333 4.517 6.317l.246-.045c.012.061.306 1.503 2.311 1.503h.002a.125.125 0 0 1 .063.233C4.33 9.635 2.968 9.826 2.484 9.826"/>
  <path fill="#cfd8dc" d="M3.631 10.425a.125.125 0 0 1-.073-.227c.009-.006.453-.335.926-1.057a5 5 0 0 1-.549-.284 2 2 0 0 1-.515-.423c-.642.17-1.236.236-1.756.192l.021-.249c.469.04 1.002-.016 1.58-.16-.393-.672-.032-1.339-.027-1.348l.218.122c-.017.03-.316.593.062 1.158.55-.158 1.137-.392 1.745-.696a8 8 0 0 0 .306-1.569.125.125 0 0 1 .176-.102c.008.004.816.373 1.401.614a.125.125 0 0 1 .023.219 16 16 0 0 1-1.694 1.01 6.8 6.8 0 0 1-.615 1.398 5.6 5.6 0 0 0 1.739.351.125.125 0 0 1 .061.234c-1.135.63-2.942.808-3.018.815zm1.096-1.183c-.26.404-.515.693-.707.882.499-.073 1.375-.234 2.102-.535a6 6 0 0 1-1.395-.348m-1.036-.884q.146.148.372.285.278.165.555.284a6.5 6.5 0 0 0 .535-1.142c-.505.24-.996.432-1.463.573m2.109-2.276a8.5 8.5 0 0 1-.228 1.212 16 16 0 0 0 1.266-.756A52 52 0 0 1 5.8 6.081M4.481 2.65a.13.13 0 0 1-.081-.03c-.403-.344-.876-1.046-.896-1.075a.125.125 0 0 1 .164-.179c.003.001.234.096 1.804.358a.125.125 0 0 1 .072.207c-.44.488-.995.703-1.018.712a.1.1 0 0 1-.044.008m-.569-.964c.158.212.385.499.593.692a2.8 2.8 0 0 0 .686-.45c-.646-.11-1.04-.189-1.279-.243"/>
  <path fill="#b71c1c" d="M5.461 6.1a.125.125 0 0 1-.124-.138c.073-.687-.982-.963-.992-.966a.125.125 0 0 1-.058-.209c.052-.052 1.285-1.274 2.832-1.946a.125.125 0 0 1 .172.14c-.296 1.436-1.677 3.011-1.736 3.077a.13.13 0 0 1-.094.042m-.847-1.279c.296.111.815.369.946.839.362-.452 1.135-1.493 1.424-2.483-1.097.527-2.02 1.323-2.37 1.645"/>
  <path fill="#b71c1c" d="m3.27 7.09-.119-.22c.471-.254 1.01-.721 1.452-1.264a9 9 0 0 0-.598.44l-.16-.193c.01-.008.441-.362 1.158-.805.197-.317.348-.642.426-.954q.02-.08.034-.154a6.6 6.6 0 0 0-1.23-.317.125.125 0 0 1-.074-.209c.021-.023.529-.567 1.163-.866a.125.125 0 0 1 .145.029c.017.018.36.404.273 1.201.289.113.586.249.873.412.69-.31 1.473-.589 2.307-.757a.13.13 0 0 1 .12.042.13.13 0 0 1 .021.126c-.325.833-1.196 1.723-1.234 1.76a.126.126 0 0 1-.187-.01 3.9 3.9 0 0 0-1.041-.881 14 14 0 0 0-1.421.762c-.505.788-1.267 1.512-1.909 1.857m3.603-2.741c.323.208.623.453.871.737.207-.225.704-.792.986-1.355a10.7 10.7 0 0 0-1.857.619M5.699 4.03l-.028.125c-.052.21-.136.425-.243.64a14 14 0 0 1 .904-.474 7 7 0 0 0-.633-.291m-1.188-.613c.278.054.62.143.985.272.038-.461-.086-.743-.162-.868a4 4 0 0 0-.824.597"/>
  <path fill="#b71c1c" d="M4.513 4.625c0 1.095-.912 1.965-1.57 2.6-.11.107-.482.125-.482.125.092-.095.198-.195.31-.302.625-.605 1.492-1.433 1.492-2.422 0-1.173-.472-1.635-.845-2.005-.165-.168-.305-.328-.39-.522l.077-.033.258.113c.06.087.14.172.233.265.383.383.917.907.917 2.183"/>
  <path fill="#b71c1c" d="m10.734 4.949-.194.026c-2.19.242-4.45.873-5.742 1.39-.468.188-.953.415-1.395.67q-.003.003-.01.005c-.26.15-.892.46-1.405.733.75-.797 2.155-1.413 2.715-1.637 1.268-.507 3.445-1.12 5.588-1.383-.253-.295-.87-.92-2.085-1.385-.71-.275-1.79-.43-2.743-.568-1.515-.217-2.377-.362-2.46-.775a.38.38 0 0 1 .033-.245 1 1 0 0 0 .353.33l.003.003c.355.188 1.313.325 2.11.44.965.14 2.058.297 2.795.58 1.718.662 2.31 1.61 2.335 1.65.022.037.104.166.104.166"/>
</svg>
