<svg xmlns="http://www.w3.org/2000/svg" viewBox="0 0 25 25" width="25" height="25">
  <path d="M12.501 5q-5 0-6.25 4.999 1.875-2.5 4.375-1.874c.951.237 1.631.927 2.384 1.691 1.225 1.244 2.643 2.684 5.741 2.684q5 0 6.25-5-1.875 2.501-4.375 1.875c-.951-.237-1.63-.927-2.384-1.691-1.225-1.244-2.643-2.683-5.741-2.683M6.251 12.5q-5 0-6.25 5 1.875-2.5 4.374-1.875c.951.237 1.631.927 2.384 1.691 1.225 1.244 2.644 2.683 5.741 2.683q5 0 6.25-4.999-1.875 2.499-4.375 1.874c-.951-.237-1.63-.927-2.384-1.691-1.224-1.243-2.642-2.683-5.74-2.683m0 0" fill="#38bdf8"/>
</svg>
