<svg viewBox="0 -13.462 75 75" xml:space="preserve" xmlns="http://www.w3.org/2000/svg" width="75" height="75">
  <g stroke-width="0"/>
  <g stroke-linecap="round" stroke-linejoin="round"/>
  <path d="M3.846 0h67.306a3.845 3.845 0 0 1 3.846 3.846V44.23a3.845 3.845 0 0 1-3.846 3.846H3.846A3.845 3.845 0 0 1 0 44.23V3.846A3.845 3.845 0 0 1 3.846 0" fill="#0E4595"/>
  <path d="m28.193 33.532 3.208-18.823h5.131l-3.21 18.823zm23.665-18.417c-1.016-.383-2.61-.79-4.599-.79-5.07 0-8.642 2.553-8.67 6.212-.028 2.706 2.55 4.213 4.495 5.114 1.996.922 2.668 1.512 2.658 2.334-.013 1.261-1.595 1.839-3.069 1.839-2.054 0-3.144-.286-4.83-.987l-.661-.3-.72 4.213c1.199.525 3.414.98 5.715 1.004 5.393 0 8.893-2.525 8.934-6.431.019-2.141-1.347-3.771-4.308-5.114-1.794-.871-2.891-1.452-2.88-2.334 0-.782.93-1.619 2.937-1.619a9.45 9.45 0 0 1 3.84.72l.459.217zm13.203-.407h-3.964c-1.228 0-2.147.336-2.686 1.56l-7.62 17.25h5.386s.882-2.319 1.08-2.828l6.57.007a359 359 0 0 1 .624 2.821h4.761zM58.77 26.862c.423-1.085 2.045-5.262 2.045-5.262-.032.051.422-1.091.681-1.797l.347 1.623 1.188 5.434zM23.838 14.709l-5.024 12.835-.535-2.609c-.936-3.007-3.849-6.264-7.106-7.896l4.593 16.462 5.429-.006 8.078-18.788z" fill="#fff"/>
  <path d="M14.127 14.707H5.853l-.065.392c6.437 1.557 10.695 5.324 12.463 9.846l-1.8-8.649c-.31-1.191-1.211-1.548-2.325-1.59" fill="#F2AE14"/>
</svg>
