<svg xmlns="http://www.w3.org/2000/svg" width="25" height="25" viewBox="0 0 12 12">
  <path fill="#29b6f6" d="M11 2.777v6.445c0 0.318 -0.198 0.6 -0.495 0.705l-2.205 1.035L8.5 8.25V3.75l-0.2 -2.712 2.205 1.035A0.745 0.745 0 0 1 11 2.777"/>
  <path fill="#0277bd" d="M2.25 8.474 8.5 3.75V1.338c0 -0.299 -0.37 -0.44 -0.569 -0.215L1.165 7.31a0.5 0.5 0 0 0 0.027 0.758s0.331 0.308 0.451 0.394c0.184 0.131 0.426 0.146 0.608 0.013"/>
  <path fill="#0288d1" d="M2.25 3.526 8.5 8.25v2.412c0 0.299 -0.37 0.44 -0.569 0.215L1.165 4.69a0.5 0.5 0 0 1 0.027 -0.758s0.331 -0.308 0.451 -0.394c0.184 -0.131 0.426 -0.146 0.608 -0.013"/>
</svg>
