<svg viewBox="0 0 25 25" xmlns="http://www.w3.org/2000/svg" width="25" height="25">
  <g stroke-width="0"/>
  <g stroke-linecap="round" stroke-linejoin="round"/>
  <path d="M22.037 19.07a8.2 8.2 0 0 0-3.093 1.423 18.5 18.5 0 0 1-4.559 2.064 1.27 1.27 0 0 1-.768.43 48 48 0 0 1-5.037.451c-.909.007-1.466-.234-1.62-.606a1.23 1.23 0 0 1 .677-1.62 3 3 0 0 1-.402-.296c-.134-.134-.275-.402-.317-.303-.176.43-.268 1.48-.74 1.953-.648.655-1.875.437-2.6.056-.796-.423.056-1.416.056-1.416a.57.57 0 0 1-.775-.268 3.8 3.8 0 0 1-.521-2.304 4.2 4.2 0 0 1 1.366-2.262 7.3 7.3 0 0 1 .514-3.438 8.16 8.16 0 0 1 2.473-2.86s-1.513-1.678-.949-3.186c.366-.986.514-.979.634-1.022a2.8 2.8 0 0 0 1.134-.67 4.12 4.12 0 0 1 3.445-1.328s.92-2.774 1.761-2.235a14.4 14.4 0 0 1 1.198 2.255s1.001-.584 1.113-.366a8.85 8.85 0 0 1 .409 4.791 10.9 10.9 0 0 1-2.031 4.227c-.105.176 1.212.733 2.043 3.037.768 2.109.084 3.875.205 4.072l.028.049s.88.07 2.649-1.022a6.64 6.64 0 0 1 3.341-1.253.845.845 0 0 1 .366 1.648Z" style="fill:#2188b6"/>
</svg>
