<svg xmlns="http://www.w3.org/2000/svg" viewBox="0 0 100 100" xml:space="preserve" width="100" height="100">
  <g stroke-width="0"/>
  <g stroke-linecap="round" stroke-linejoin="round"/>
  <path style="fill:#fffefe" d="M92.858 23.013V100H9.334V0h60.512l10.719 10.719Z"/>
  <path style="fill:#b43331" d="M7.142 6.698H47.2v17.924H7.142z"/>
  <path style="fill:#fffefe" d="M21.51 12.574a3.4 3.4 0 0 0-.736-1.134 3.4 3.4 0 0 0-1.178-.766c-.471-.191-1.001-.28-1.59-.28h-4.402V21.76h2.223v-4.283h2.179c.589 0 1.119-.088 1.59-.28a3.4 3.4 0 0 0 1.178-.766c.324-.324.56-.692.736-1.134a3.8 3.8 0 0 0 .25-1.354 3.9 3.9 0 0 0-.25-1.369m-2.4 2.488c-.295.28-.707.427-1.207.427h-2.076v-3.121h2.076c.501 0 .913.147 1.207.442.28.28.427.662.427 1.134 0 .457-.147.839-.427 1.119m13.03-.266a11 11 0 0 0-.074-1.075 4.2 4.2 0 0 0-.221-.898 3.3 3.3 0 0 0-.412-.766c-.397-.574-.883-1.001-1.428-1.266-.559-.265-1.222-.397-2.002-.397H23.91v11.366h4.093c.78 0 1.443-.132 2.002-.397.545-.265 1.031-.692 1.428-1.266a3.2 3.2 0 0 0 .412-.766c.103-.28.177-.574.221-.898s.059-.677.074-1.075c.015-.383.015-.81.015-1.281s0-.898-.015-1.281m-2.223 2.43c0 .339-.029.604-.059.839a2.5 2.5 0 0 1-.132.574 1.7 1.7 0 0 1-.25.442c-.368.471-.928.692-1.664.692h-1.693v-7.406h1.693c.736 0 1.296.236 1.664.707.103.132.191.265.25.427s.103.353.132.589a6 6 0 0 1 .059.824c.015.324.015.721.015 1.163s0 .825-.015 1.149m11.72-4.859v-1.973h-7.494v11.366h2.223v-4.608h4.491v-1.988h-4.491v-2.797z"/>
  <path style="fill:#fffefe" d="M21.51 12.574a3.4 3.4 0 0 0-.736-1.134 3.4 3.4 0 0 0-1.178-.766c-.471-.191-1.001-.28-1.59-.28h-4.402V21.76h2.223v-4.283h2.179c.589 0 1.119-.088 1.59-.28a3.4 3.4 0 0 0 1.178-.766c.324-.324.56-.692.736-1.134a3.8 3.8 0 0 0 .25-1.354 3.9 3.9 0 0 0-.25-1.369m-2.4 2.488c-.295.28-.707.427-1.207.427h-2.076v-3.121h2.076c.501 0 .913.147 1.207.442.28.28.427.662.427 1.134 0 .457-.147.839-.427 1.119"/>
  <path style="opacity:.08;fill:#040000" d="M92.858 23.013V100H9.334V81.949L48.38 42.904l2.312-2.312 1.28-1.281 2.135-2.135 2.533-2.532 23.925-23.925Z"/>
  <path style="fill:#bbbbba" d="M92.858 23.015H69.844V0Z"/>
  <path style="fill:#b43331" d="M80.933 72.394a9.6 9.6 0 0 0-1.973-2.4 14.2 14.2 0 0 0-2.371-1.723c-3.622-2.135-8.79-3.165-15.813-3.165h-.707c-.383-.353-.78-.707-1.193-1.075-2.665-2.4-4.785-5.006-6.434-7.906 3.239-7.141 4.785-13.501 4.594-18.919q-.044-1.369-.398-2.562c-.353-1.281-.942-2.415-1.767-3.342l-.029-.029c-1.31-1.472-3.136-2.312-4.991-2.312-1.87 0-3.592.81-4.844 2.297-1.237 1.472-1.899 3.489-1.929 5.86-.044 3.622.25 7.052.869 10.218.059.25.103.501.162.751a38.4 38.4 0 0 0 2.709 8.127c-1.384 2.812-2.783 5.241-3.754 6.89a120 120 0 0 1-2.385 3.872c-3.784.677-6.994 1.502-9.791 2.532-3.784 1.369-6.817 3.136-8.996 5.241-1.414 1.354-2.371 2.797-2.842 4.299-.501 1.546-.471 3.092.088 4.476.515 1.281 1.443 2.356 2.679 3.092.295.177.604.324.928.456a8.1 8.1 0 0 0 3.048.589c2.488 0 5.05-1.075 7.214-3.004 4.034-3.607 8.201-9.408 10.659-13.074 2.017-.309 4.211-.574 6.684-.839 2.915-.295 5.492-.471 7.833-.56q1.082.972 2.076 1.855c3.681 3.283 6.478 5.654 9.011 7.317 0 .015.015.015.029.015a22 22 0 0 0 2.915 1.649c1.075.501 2.164.766 3.283.766a6.6 6.6 0 0 0 3.843-1.207 6.1 6.1 0 0 0 2.297-3.283c.427-1.575.177-3.327-.706-4.902m-32.553-29.49a45 45 0 0 1-.265-5.727c.029-1.899.721-3.18 1.737-3.18.765 0 1.575.692 1.944 2.017.103.397.177.854.191 1.369.029.618.015 1.266-.015 1.929-.088 1.87-.413 3.857-.972 5.992q-.508 2.054-1.325 4.284a36 36 0 0 1-1.296-6.684M23.822 81.655c-.25-.618.029-1.811 1.561-3.283 2.341-2.238 6.007-4.005 11.116-5.345a70 70 0 0 1-2.856 3.637c-1.413 1.708-2.768 3.151-3.99 4.24-1.045.942-2.194 1.531-3.283 1.679q-.287.044-.574.044c-.957 0-1.737-.383-1.973-.972M47.35 66.004l.103-.162-.162.029a1 1 0 0 1 .118-.206 119 119 0 0 0 2.238-3.931l.074.162.191-.397a37 37 0 0 0 2.002 2.591c.339.397.692.78 1.045 1.163l-.235.015.206.191c-.604.044-1.237.103-1.87.162-.398.044-.81.074-1.222.118-.854.088-1.693.177-2.488.265m24.779 9.187c-1.752-1.119-3.71-2.694-6.125-4.8 3.43.353 6.125 1.104 8.039 2.223.839.486 1.472.987 1.899 1.472.707.751.957 1.428.824 1.885-.118.456-.633.766-1.266.766-.368 0-.751-.088-1.148-.28a19 19 0 0 1-2.135-1.207c-.029 0-.059-.029-.088-.059"/>
</svg>
