<svg viewBox="0 0 25 25" fill="#FFFFFF" xmlns="http://www.w3.org/2000/svg" width="25" height="25"><path d="M12.5.309C5.594.309 0 5.906 0 12.809c0 5.524 3.581 10.208 8.547 11.859.625.118.854-.269.854-.601 0-.297-.01-1.083-.016-2.125-3.477.754-4.21-1.677-4.21-1.677-.569-1.442-1.391-1.827-1.391-1.827-1.132-.775.088-.759.088-.759 1.255.088 1.915 1.288 1.915 1.288 1.115 1.911 2.926 1.359 3.641 1.04.113-.808.434-1.359.792-1.672-2.776-.313-5.694-1.388-5.694-6.177 0-1.365.484-2.479 1.286-3.354-.141-.316-.563-1.586.109-3.308 0 0 1.047-.335 3.438 1.281 1-.278 2.063-.416 3.125-.422 1.063.006 2.125.144 3.125.422 2.375-1.617 3.422-1.281 3.422-1.281.672 1.722.25 2.993.125 3.308.797.875 1.281 1.99 1.281 3.354 0 4.802-2.922 5.859-5.703 6.167.438.375.844 1.142.844 2.313 0 1.673-.016 3.017-.016 3.423 0 .328.219.719.859.594C21.422 23.012 25 18.325 25 12.809c0-6.903-5.597-12.5-12.5-12.5"/></svg>